<?xml version="1.0" encoding="utf-8" standalone="no"?>
<!DOCTYPE svg PUBLIC "-//W3C//DTD SVG 1.1//EN"
  "http://www.w3.org/Graphics/SVG/1.1/DTD/svg11.dtd">
<svg xmlns:xlink="http://www.w3.org/1999/xlink" width="385.78125pt" height="277.314375pt" viewBox="0 0 385.78125 277.314375" xmlns="http://www.w3.org/2000/svg" version="1.1">
 <metadata>
  <rdf:RDF xmlns:dc="http://purl.org/dc/elements/1.1/" xmlns:cc="http://creativecommons.org/ns#" xmlns:rdf="http://www.w3.org/1999/02/22-rdf-syntax-ns#">
   <cc:Work>
    <dc:type rdf:resource="http://purl.org/dc/dcmitype/StillImage"/>
    <dc:date>2024-04-06T23:04:02.980502</dc:date>
    <dc:format>image/svg+xml</dc:format>
    <dc:creator>
     <cc:Agent>
      <dc:title>Matplotlib v3.7.1, https://matplotlib.org/</dc:title>
     </cc:Agent>
    </dc:creator>
   </cc:Work>
  </rdf:RDF>
 </metadata>
 <defs>
  <style type="text/css">*{stroke-linejoin: round; stroke-linecap: butt}</style>
 </defs>
 <g id="figure_1">
  <g id="patch_1">
   <path d="M 0 277.314375 
L 385.78125 277.314375 
L 385.78125 0 
L 0 0 
z
" style="fill: #ffffff"/>
  </g>
  <g id="axes_1">
   <g id="patch_2">
    <path d="M 43.78125 239.758125 
L 378.58125 239.758125 
L 378.58125 22.318125 
L 43.78125 22.318125 
z
" style="fill: #ffffff"/>
   </g>
   <g id="matplotlib.axis_1">
    <g id="xtick_1">
     <g id="line2d_1">
      <path d="M 83.408442 239.758125 
L 83.408442 22.318125 
" clip-path="url(#pa4b0186014)" style="fill: none; stroke: #b0b0b0; stroke-width: 0.8; stroke-linecap: square"/>
     </g>
     <g id="line2d_2">
      <defs>
       <path id="m323a5d1ea9" d="M 0 0 
L 0 3.5 
" style="stroke: #000000; stroke-width: 0.8"/>
      </defs>
      <g>
       <use xlink:href="#m323a5d1ea9" x="83.408442" y="239.758125" style="stroke: #000000; stroke-width: 0.8"/>
      </g>
     </g>
     <g id="text_1">
      <!-- 0.1 -->
      <g transform="translate(75.456879 254.356562) scale(0.1 -0.1)">
       <defs>
        <path id="DejaVuSans-30" d="M 2034 4250 
Q 1547 4250 1301 3770 
Q 1056 3291 1056 2328 
Q 1056 1369 1301 889 
Q 1547 409 2034 409 
Q 2525 409 2770 889 
Q 3016 1369 3016 2328 
Q 3016 3291 2770 3770 
Q 2525 4250 2034 4250 
z
M 2034 4750 
Q 2819 4750 3233 4129 
Q 3647 3509 3647 2328 
Q 3647 1150 3233 529 
Q 2819 -91 2034 -91 
Q 1250 -91 836 529 
Q 422 1150 422 2328 
Q 422 3509 836 4129 
Q 1250 4750 2034 4750 
z
" transform="scale(0.015625)"/>
        <path id="DejaVuSans-2e" d="M 684 794 
L 1344 794 
L 1344 0 
L 684 0 
L 684 794 
z
" transform="scale(0.015625)"/>
        <path id="DejaVuSans-31" d="M 794 531 
L 1825 531 
L 1825 4091 
L 703 3866 
L 703 4441 
L 1819 4666 
L 2450 4666 
L 2450 531 
L 3481 531 
L 3481 0 
L 794 0 
L 794 531 
z
" transform="scale(0.015625)"/>
       </defs>
       <use xlink:href="#DejaVuSans-30"/>
       <use xlink:href="#DejaVuSans-2e" x="63.623047"/>
       <use xlink:href="#DejaVuSans-31" x="95.410156"/>
      </g>
     </g>
    </g>
    <g id="xtick_2">
     <g id="line2d_3">
      <path d="M 143.784024 239.758125 
L 143.784024 22.318125 
" clip-path="url(#pa4b0186014)" style="fill: none; stroke: #b0b0b0; stroke-width: 0.8; stroke-linecap: square"/>
     </g>
     <g id="line2d_4">
      <g>
       <use xlink:href="#m323a5d1ea9" x="143.784024" y="239.758125" style="stroke: #000000; stroke-width: 0.8"/>
      </g>
     </g>
     <g id="text_2">
      <!-- 0.2 -->
      <g transform="translate(135.832461 254.356562) scale(0.1 -0.1)">
       <defs>
        <path id="DejaVuSans-32" d="M 1228 531 
L 3431 531 
L 3431 0 
L 469 0 
L 469 531 
Q 828 903 1448 1529 
Q 2069 2156 2228 2338 
Q 2531 2678 2651 2914 
Q 2772 3150 2772 3378 
Q 2772 3750 2511 3984 
Q 2250 4219 1831 4219 
Q 1534 4219 1204 4116 
Q 875 4013 500 3803 
L 500 4441 
Q 881 4594 1212 4672 
Q 1544 4750 1819 4750 
Q 2544 4750 2975 4387 
Q 3406 4025 3406 3419 
Q 3406 3131 3298 2873 
Q 3191 2616 2906 2266 
Q 2828 2175 2409 1742 
Q 1991 1309 1228 531 
z
" transform="scale(0.015625)"/>
       </defs>
       <use xlink:href="#DejaVuSans-30"/>
       <use xlink:href="#DejaVuSans-2e" x="63.623047"/>
       <use xlink:href="#DejaVuSans-32" x="95.410156"/>
      </g>
     </g>
    </g>
    <g id="xtick_3">
     <g id="line2d_5">
      <path d="M 204.159606 239.758125 
L 204.159606 22.318125 
" clip-path="url(#pa4b0186014)" style="fill: none; stroke: #b0b0b0; stroke-width: 0.8; stroke-linecap: square"/>
     </g>
     <g id="line2d_6">
      <g>
       <use xlink:href="#m323a5d1ea9" x="204.159606" y="239.758125" style="stroke: #000000; stroke-width: 0.8"/>
      </g>
     </g>
     <g id="text_3">
      <!-- 0.3 -->
      <g transform="translate(196.208043 254.356562) scale(0.1 -0.1)">
       <defs>
        <path id="DejaVuSans-33" d="M 2597 2516 
Q 3050 2419 3304 2112 
Q 3559 1806 3559 1356 
Q 3559 666 3084 287 
Q 2609 -91 1734 -91 
Q 1441 -91 1130 -33 
Q 819 25 488 141 
L 488 750 
Q 750 597 1062 519 
Q 1375 441 1716 441 
Q 2309 441 2620 675 
Q 2931 909 2931 1356 
Q 2931 1769 2642 2001 
Q 2353 2234 1838 2234 
L 1294 2234 
L 1294 2753 
L 1863 2753 
Q 2328 2753 2575 2939 
Q 2822 3125 2822 3475 
Q 2822 3834 2567 4026 
Q 2313 4219 1838 4219 
Q 1578 4219 1281 4162 
Q 984 4106 628 3988 
L 628 4550 
Q 988 4650 1302 4700 
Q 1616 4750 1894 4750 
Q 2613 4750 3031 4423 
Q 3450 4097 3450 3541 
Q 3450 3153 3228 2886 
Q 3006 2619 2597 2516 
z
" transform="scale(0.015625)"/>
       </defs>
       <use xlink:href="#DejaVuSans-30"/>
       <use xlink:href="#DejaVuSans-2e" x="63.623047"/>
       <use xlink:href="#DejaVuSans-33" x="95.410156"/>
      </g>
     </g>
    </g>
    <g id="xtick_4">
     <g id="line2d_7">
      <path d="M 264.535188 239.758125 
L 264.535188 22.318125 
" clip-path="url(#pa4b0186014)" style="fill: none; stroke: #b0b0b0; stroke-width: 0.8; stroke-linecap: square"/>
     </g>
     <g id="line2d_8">
      <g>
       <use xlink:href="#m323a5d1ea9" x="264.535188" y="239.758125" style="stroke: #000000; stroke-width: 0.8"/>
      </g>
     </g>
     <g id="text_4">
      <!-- 0.4 -->
      <g transform="translate(256.583626 254.356562) scale(0.1 -0.1)">
       <defs>
        <path id="DejaVuSans-34" d="M 2419 4116 
L 825 1625 
L 2419 1625 
L 2419 4116 
z
M 2253 4666 
L 3047 4666 
L 3047 1625 
L 3713 1625 
L 3713 1100 
L 3047 1100 
L 3047 0 
L 2419 0 
L 2419 1100 
L 313 1100 
L 313 1709 
L 2253 4666 
z
" transform="scale(0.015625)"/>
       </defs>
       <use xlink:href="#DejaVuSans-30"/>
       <use xlink:href="#DejaVuSans-2e" x="63.623047"/>
       <use xlink:href="#DejaVuSans-34" x="95.410156"/>
      </g>
     </g>
    </g>
    <g id="xtick_5">
     <g id="line2d_9">
      <path d="M 324.91077 239.758125 
L 324.91077 22.318125 
" clip-path="url(#pa4b0186014)" style="fill: none; stroke: #b0b0b0; stroke-width: 0.8; stroke-linecap: square"/>
     </g>
     <g id="line2d_10">
      <g>
       <use xlink:href="#m323a5d1ea9" x="324.91077" y="239.758125" style="stroke: #000000; stroke-width: 0.8"/>
      </g>
     </g>
     <g id="text_5">
      <!-- 0.5 -->
      <g transform="translate(316.959208 254.356562) scale(0.1 -0.1)">
       <defs>
        <path id="DejaVuSans-35" d="M 691 4666 
L 3169 4666 
L 3169 4134 
L 1269 4134 
L 1269 2991 
Q 1406 3038 1543 3061 
Q 1681 3084 1819 3084 
Q 2600 3084 3056 2656 
Q 3513 2228 3513 1497 
Q 3513 744 3044 326 
Q 2575 -91 1722 -91 
Q 1428 -91 1123 -41 
Q 819 9 494 109 
L 494 744 
Q 775 591 1075 516 
Q 1375 441 1709 441 
Q 2250 441 2565 725 
Q 2881 1009 2881 1497 
Q 2881 1984 2565 2268 
Q 2250 2553 1709 2553 
Q 1456 2553 1204 2497 
Q 953 2441 691 2322 
L 691 4666 
z
" transform="scale(0.015625)"/>
       </defs>
       <use xlink:href="#DejaVuSans-30"/>
       <use xlink:href="#DejaVuSans-2e" x="63.623047"/>
       <use xlink:href="#DejaVuSans-35" x="95.410156"/>
      </g>
     </g>
    </g>
    <g id="text_6">
     <!-- F1 -->
     <g transform="translate(205.124219 268.034687) scale(0.1 -0.1)">
      <defs>
       <path id="DejaVuSans-46" d="M 628 4666 
L 3309 4666 
L 3309 4134 
L 1259 4134 
L 1259 2759 
L 3109 2759 
L 3109 2228 
L 1259 2228 
L 1259 0 
L 628 0 
L 628 4666 
z
" transform="scale(0.015625)"/>
      </defs>
      <use xlink:href="#DejaVuSans-46"/>
      <use xlink:href="#DejaVuSans-31" x="57.519531"/>
     </g>
    </g>
   </g>
   <g id="matplotlib.axis_2">
    <g id="ytick_1">
     <g id="line2d_11">
      <path d="M 43.78125 233.522648 
L 378.58125 233.522648 
" clip-path="url(#pa4b0186014)" style="fill: none; stroke: #b0b0b0; stroke-width: 0.8; stroke-linecap: square"/>
     </g>
     <g id="line2d_12">
      <defs>
       <path id="m4e2364a8a7" d="M 0 0 
L -3.5 0 
" style="stroke: #000000; stroke-width: 0.8"/>
      </defs>
      <g>
       <use xlink:href="#m4e2364a8a7" x="43.78125" y="233.522648" style="stroke: #000000; stroke-width: 0.8"/>
      </g>
     </g>
     <g id="text_7">
      <!-- 0.0 -->
      <g transform="translate(20.878125 237.321867) scale(0.1 -0.1)">
       <use xlink:href="#DejaVuSans-30"/>
       <use xlink:href="#DejaVuSans-2e" x="63.623047"/>
       <use xlink:href="#DejaVuSans-30" x="95.410156"/>
      </g>
     </g>
    </g>
    <g id="ytick_2">
     <g id="line2d_13">
      <path d="M 43.78125 193.247329 
L 378.58125 193.247329 
" clip-path="url(#pa4b0186014)" style="fill: none; stroke: #b0b0b0; stroke-width: 0.8; stroke-linecap: square"/>
     </g>
     <g id="line2d_14">
      <g>
       <use xlink:href="#m4e2364a8a7" x="43.78125" y="193.247329" style="stroke: #000000; stroke-width: 0.8"/>
      </g>
     </g>
     <g id="text_8">
      <!-- 0.1 -->
      <g transform="translate(20.878125 197.046548) scale(0.1 -0.1)">
       <use xlink:href="#DejaVuSans-30"/>
       <use xlink:href="#DejaVuSans-2e" x="63.623047"/>
       <use xlink:href="#DejaVuSans-31" x="95.410156"/>
      </g>
     </g>
    </g>
    <g id="ytick_3">
     <g id="line2d_15">
      <path d="M 43.78125 152.972011 
L 378.58125 152.972011 
" clip-path="url(#pa4b0186014)" style="fill: none; stroke: #b0b0b0; stroke-width: 0.8; stroke-linecap: square"/>
     </g>
     <g id="line2d_16">
      <g>
       <use xlink:href="#m4e2364a8a7" x="43.78125" y="152.972011" style="stroke: #000000; stroke-width: 0.8"/>
      </g>
     </g>
     <g id="text_9">
      <!-- 0.2 -->
      <g transform="translate(20.878125 156.77123) scale(0.1 -0.1)">
       <use xlink:href="#DejaVuSans-30"/>
       <use xlink:href="#DejaVuSans-2e" x="63.623047"/>
       <use xlink:href="#DejaVuSans-32" x="95.410156"/>
      </g>
     </g>
    </g>
    <g id="ytick_4">
     <g id="line2d_17">
      <path d="M 43.78125 112.696692 
L 378.58125 112.696692 
" clip-path="url(#pa4b0186014)" style="fill: none; stroke: #b0b0b0; stroke-width: 0.8; stroke-linecap: square"/>
     </g>
     <g id="line2d_18">
      <g>
       <use xlink:href="#m4e2364a8a7" x="43.78125" y="112.696692" style="stroke: #000000; stroke-width: 0.8"/>
      </g>
     </g>
     <g id="text_10">
      <!-- 0.3 -->
      <g transform="translate(20.878125 116.495911) scale(0.1 -0.1)">
       <use xlink:href="#DejaVuSans-30"/>
       <use xlink:href="#DejaVuSans-2e" x="63.623047"/>
       <use xlink:href="#DejaVuSans-33" x="95.410156"/>
      </g>
     </g>
    </g>
    <g id="ytick_5">
     <g id="line2d_19">
      <path d="M 43.78125 72.421374 
L 378.58125 72.421374 
" clip-path="url(#pa4b0186014)" style="fill: none; stroke: #b0b0b0; stroke-width: 0.8; stroke-linecap: square"/>
     </g>
     <g id="line2d_20">
      <g>
       <use xlink:href="#m4e2364a8a7" x="43.78125" y="72.421374" style="stroke: #000000; stroke-width: 0.8"/>
      </g>
     </g>
     <g id="text_11">
      <!-- 0.4 -->
      <g transform="translate(20.878125 76.220593) scale(0.1 -0.1)">
       <use xlink:href="#DejaVuSans-30"/>
       <use xlink:href="#DejaVuSans-2e" x="63.623047"/>
       <use xlink:href="#DejaVuSans-34" x="95.410156"/>
      </g>
     </g>
    </g>
    <g id="ytick_6">
     <g id="line2d_21">
      <path d="M 43.78125 32.146056 
L 378.58125 32.146056 
" clip-path="url(#pa4b0186014)" style="fill: none; stroke: #b0b0b0; stroke-width: 0.8; stroke-linecap: square"/>
     </g>
     <g id="line2d_22">
      <g>
       <use xlink:href="#m4e2364a8a7" x="43.78125" y="32.146056" style="stroke: #000000; stroke-width: 0.8"/>
      </g>
     </g>
     <g id="text_12">
      <!-- 0.5 -->
      <g transform="translate(20.878125 35.945274) scale(0.1 -0.1)">
       <use xlink:href="#DejaVuSans-30"/>
       <use xlink:href="#DejaVuSans-2e" x="63.623047"/>
       <use xlink:href="#DejaVuSans-35" x="95.410156"/>
      </g>
     </g>
    </g>
    <g id="text_13">
     <!-- F2 -->
     <g transform="translate(14.798438 137.095156) rotate(-90) scale(0.1 -0.1)">
      <use xlink:href="#DejaVuSans-46"/>
      <use xlink:href="#DejaVuSans-32" x="57.519531"/>
     </g>
    </g>
   </g>
   <g id="line2d_23">
    <defs>
     <path id="m81a1435d37" d="M 0 2.5 
C 0.663008 2.5 1.29895 2.236584 1.767767 1.767767 
C 2.236584 1.29895 2.5 0.663008 2.5 0 
C 2.5 -0.663008 2.236584 -1.29895 1.767767 -1.767767 
C 1.29895 -2.236584 0.663008 -2.5 0 -2.5 
C -0.663008 -2.5 -1.29895 -2.236584 -1.767767 -1.767767 
C -2.236584 -1.29895 -2.5 -0.663008 -2.5 0 
C -2.5 0.663008 -2.236584 1.29895 -1.767767 1.767767 
C -1.29895 2.236584 -0.663008 2.5 0 2.5 
z
" style="stroke: #ff0000"/>
    </defs>
    <g clip-path="url(#pa4b0186014)">
     <use xlink:href="#m81a1435d37" x="209.073962" y="170.051266" style="fill: #ff0000; stroke: #ff0000"/>
     <use xlink:href="#m81a1435d37" x="187.378058" y="188.421032" style="fill: #ff0000; stroke: #ff0000"/>
     <use xlink:href="#m81a1435d37" x="171.100432" y="205.822086" style="fill: #ff0000; stroke: #ff0000"/>
     <use xlink:href="#m81a1435d37" x="70.903129" y="229.347158" style="fill: #ff0000; stroke: #ff0000"/>
     <use xlink:href="#m81a1435d37" x="293.73545" y="92.245674" style="fill: #ff0000; stroke: #ff0000"/>
     <use xlink:href="#m81a1435d37" x="325.144841" y="70.376988" style="fill: #ff0000; stroke: #ff0000"/>
     <use xlink:href="#m81a1435d37" x="174.689635" y="202.368561" style="fill: #ff0000; stroke: #ff0000"/>
     <use xlink:href="#m81a1435d37" x="64.946577" y="229.487155" style="fill: #ff0000; stroke: #ff0000"/>
     <use xlink:href="#m81a1435d37" x="281.373193" y="108.41208" style="fill: #ff0000; stroke: #ff0000"/>
     <use xlink:href="#m81a1435d37" x="196.511872" y="181.327964" style="fill: #ff0000; stroke: #ff0000"/>
     <use xlink:href="#m81a1435d37" x="180.920346" y="195.607679" style="fill: #ff0000; stroke: #ff0000"/>
     <use xlink:href="#m81a1435d37" x="302.494616" y="88.919156" style="fill: #ff0000; stroke: #ff0000"/>
     <use xlink:href="#m81a1435d37" x="313.365115" y="80.915377" style="fill: #ff0000; stroke: #ff0000"/>
     <use xlink:href="#m81a1435d37" x="77.377156" y="229.333163" style="fill: #ff0000; stroke: #ff0000"/>
     <use xlink:href="#m81a1435d37" x="302.96306" y="87.786423" style="fill: #ff0000; stroke: #ff0000"/>
     <use xlink:href="#m81a1435d37" x="261.360993" y="131.679929" style="fill: #ff0000; stroke: #ff0000"/>
     <use xlink:href="#m81a1435d37" x="360.034395" y="35.528747" style="fill: #ff0000; stroke: #ff0000"/>
     <use xlink:href="#m81a1435d37" x="58.999432" y="229.874489" style="fill: #ff0000; stroke: #ff0000"/>
     <use xlink:href="#m81a1435d37" x="246.313594" y="144.402764" style="fill: #ff0000; stroke: #ff0000"/>
     <use xlink:href="#m81a1435d37" x="357.486741" y="39.568759" style="fill: #ff0000; stroke: #ff0000"/>
     <use xlink:href="#m81a1435d37" x="256.658722" y="136.468632" style="fill: #ff0000; stroke: #ff0000"/>
     <use xlink:href="#m81a1435d37" x="333.457488" y="62.449548" style="fill: #ff0000; stroke: #ff0000"/>
     <use xlink:href="#m81a1435d37" x="105.564719" y="228.14228" style="fill: #ff0000; stroke: #ff0000"/>
     <use xlink:href="#m81a1435d37" x="335.030957" y="60.391169" style="fill: #ff0000; stroke: #ff0000"/>
     <use xlink:href="#m81a1435d37" x="214.032369" y="165.94078" style="fill: #ff0000; stroke: #ff0000"/>
     <use xlink:href="#m81a1435d37" x="237.874472" y="148.667987" style="fill: #ff0000; stroke: #ff0000"/>
     <use xlink:href="#m81a1435d37" x="288.308292" y="98.027545" style="fill: #ff0000; stroke: #ff0000"/>
     <use xlink:href="#m81a1435d37" x="273.514086" y="118.542271" style="fill: #ff0000; stroke: #ff0000"/>
     <use xlink:href="#m81a1435d37" x="270.533978" y="119.770044" style="fill: #ff0000; stroke: #ff0000"/>
     <use xlink:href="#m81a1435d37" x="270.07053" y="121.669636" style="fill: #ff0000; stroke: #ff0000"/>
     <use xlink:href="#m81a1435d37" x="336.432722" y="59.705654" style="fill: #ff0000; stroke: #ff0000"/>
     <use xlink:href="#m81a1435d37" x="228.631933" y="155.456897" style="fill: #ff0000; stroke: #ff0000"/>
     <use xlink:href="#m81a1435d37" x="182.179104" y="191.999142" style="fill: #ff0000; stroke: #ff0000"/>
     <use xlink:href="#m81a1435d37" x="103.800023" y="228.291288" style="fill: #ff0000; stroke: #ff0000"/>
     <use xlink:href="#m81a1435d37" x="210.935372" y="167.437119" style="fill: #ff0000; stroke: #ff0000"/>
     <use xlink:href="#m81a1435d37" x="328.305949" y="66.573976" style="fill: #ff0000; stroke: #ff0000"/>
     <use xlink:href="#m81a1435d37" x="166.840843" y="207.058999" style="fill: #ff0000; stroke: #ff0000"/>
     <use xlink:href="#m81a1435d37" x="308.461283" y="84.90968" style="fill: #ff0000; stroke: #ff0000"/>
     <use xlink:href="#m81a1435d37" x="97.282319" y="228.711687" style="fill: #ff0000; stroke: #ff0000"/>
     <use xlink:href="#m81a1435d37" x="338.891086" y="56.793779" style="fill: #ff0000; stroke: #ff0000"/>
     <use xlink:href="#m81a1435d37" x="191.454849" y="183.7418" style="fill: #ff0000; stroke: #ff0000"/>
     <use xlink:href="#m81a1435d37" x="84.946093" y="228.976406" style="fill: #ff0000; stroke: #ff0000"/>
     <use xlink:href="#m81a1435d37" x="122.44096" y="225.275458" style="fill: #ff0000; stroke: #ff0000"/>
     <use xlink:href="#m81a1435d37" x="338.190852" y="57.582903" style="fill: #ff0000; stroke: #ff0000"/>
     <use xlink:href="#m81a1435d37" x="201.893658" y="176.372324" style="fill: #ff0000; stroke: #ff0000"/>
     <use xlink:href="#m81a1435d37" x="164.660749" y="210.245294" style="fill: #ff0000; stroke: #ff0000"/>
     <use xlink:href="#m81a1435d37" x="276.412995" y="114.182549" style="fill: #ff0000; stroke: #ff0000"/>
     <use xlink:href="#m81a1435d37" x="128.620961" y="224.733075" style="fill: #ff0000; stroke: #ff0000"/>
     <use xlink:href="#m81a1435d37" x="178.981283" y="197.12924" style="fill: #ff0000; stroke: #ff0000"/>
     <use xlink:href="#m81a1435d37" x="157.856539" y="215.317861" style="fill: #ff0000; stroke: #ff0000"/>
     <use xlink:href="#m81a1435d37" x="199.56816" y="178.58158" style="fill: #ff0000; stroke: #ff0000"/>
     <use xlink:href="#m81a1435d37" x="188.640422" y="187.549148" style="fill: #ff0000; stroke: #ff0000"/>
     <use xlink:href="#m81a1435d37" x="344.418361" y="52.750936" style="fill: #ff0000; stroke: #ff0000"/>
     <use xlink:href="#m81a1435d37" x="344.056385" y="53.262034" style="fill: #ff0000; stroke: #ff0000"/>
     <use xlink:href="#m81a1435d37" x="151.275732" y="218.80577" style="fill: #ff0000; stroke: #ff0000"/>
     <use xlink:href="#m81a1435d37" x="249.330212" y="142.223905" style="fill: #ff0000; stroke: #ff0000"/>
     <use xlink:href="#m81a1435d37" x="155.920753" y="216.517394" style="fill: #ff0000; stroke: #ff0000"/>
     <use xlink:href="#m81a1435d37" x="287.074661" y="100.364358" style="fill: #ff0000; stroke: #ff0000"/>
     <use xlink:href="#m81a1435d37" x="319.138519" y="77.396271" style="fill: #ff0000; stroke: #ff0000"/>
     <use xlink:href="#m81a1435d37" x="262.805294" y="127.584884" style="fill: #ff0000; stroke: #ff0000"/>
     <use xlink:href="#m81a1435d37" x="193.901467" y="183.025408" style="fill: #ff0000; stroke: #ff0000"/>
     <use xlink:href="#m81a1435d37" x="233.706877" y="152.615701" style="fill: #ff0000; stroke: #ff0000"/>
     <use xlink:href="#m81a1435d37" x="241.108476" y="148.239127" style="fill: #ff0000; stroke: #ff0000"/>
     <use xlink:href="#m81a1435d37" x="220.49619" y="161.453946" style="fill: #ff0000; stroke: #ff0000"/>
     <use xlink:href="#m81a1435d37" x="205.970487" y="171.43611" style="fill: #ff0000; stroke: #ff0000"/>
     <use xlink:href="#m81a1435d37" x="259.740947" y="133.601156" style="fill: #ff0000; stroke: #ff0000"/>
     <use xlink:href="#m81a1435d37" x="284.983279" y="102.518773" style="fill: #ff0000; stroke: #ff0000"/>
     <use xlink:href="#m81a1435d37" x="243.197802" y="146.644141" style="fill: #ff0000; stroke: #ff0000"/>
     <use xlink:href="#m81a1435d37" x="321.146279" y="71.287354" style="fill: #ff0000; stroke: #ff0000"/>
     <use xlink:href="#m81a1435d37" x="146.978415" y="219.600741" style="fill: #ff0000; stroke: #ff0000"/>
     <use xlink:href="#m81a1435d37" x="310.623176" y="83.101275" style="fill: #ff0000; stroke: #ff0000"/>
     <use xlink:href="#m81a1435d37" x="316.517171" y="79.431916" style="fill: #ff0000; stroke: #ff0000"/>
     <use xlink:href="#m81a1435d37" x="266.13129" y="125.885802" style="fill: #ff0000; stroke: #ff0000"/>
     <use xlink:href="#m81a1435d37" x="356.394881" y="41.737997" style="fill: #ff0000; stroke: #ff0000"/>
     <use xlink:href="#m81a1435d37" x="284.617274" y="103.702542" style="fill: #ff0000; stroke: #ff0000"/>
     <use xlink:href="#m81a1435d37" x="326.402541" y="68.914485" style="fill: #ff0000; stroke: #ff0000"/>
     <use xlink:href="#m81a1435d37" x="267.737027" y="124.295143" style="fill: #ff0000; stroke: #ff0000"/>
     <use xlink:href="#m81a1435d37" x="236.486496" y="151.022984" style="fill: #ff0000; stroke: #ff0000"/>
     <use xlink:href="#m81a1435d37" x="223.300676" y="159.766339" style="fill: #ff0000; stroke: #ff0000"/>
     <use xlink:href="#m81a1435d37" x="261.772778" y="130.36157" style="fill: #ff0000; stroke: #ff0000"/>
     <use xlink:href="#m81a1435d37" x="219.06425" y="162.533344" style="fill: #ff0000; stroke: #ff0000"/>
     <use xlink:href="#m81a1435d37" x="359.758365" y="36.33584" style="fill: #ff0000; stroke: #ff0000"/>
     <use xlink:href="#m81a1435d37" x="154.734545" y="217.230431" style="fill: #ff0000; stroke: #ff0000"/>
     <use xlink:href="#m81a1435d37" x="90.197785" y="228.750244" style="fill: #ff0000; stroke: #ff0000"/>
     <use xlink:href="#m81a1435d37" x="298.42338" y="90.908542" style="fill: #ff0000; stroke: #ff0000"/>
     <use xlink:href="#m81a1435d37" x="197.938008" y="179.765422" style="fill: #ff0000; stroke: #ff0000"/>
     <use xlink:href="#m81a1435d37" x="185.275735" y="189.858341" style="fill: #ff0000; stroke: #ff0000"/>
     <use xlink:href="#m81a1435d37" x="341.053968" y="55.254325" style="fill: #ff0000; stroke: #ff0000"/>
     <use xlink:href="#m81a1435d37" x="257.693831" y="133.87366" style="fill: #ff0000; stroke: #ff0000"/>
     <use xlink:href="#m81a1435d37" x="118.901139" y="226.578974" style="fill: #ff0000; stroke: #ff0000"/>
     <use xlink:href="#m81a1435d37" x="124.55181" y="224.80711" style="fill: #ff0000; stroke: #ff0000"/>
     <use xlink:href="#m81a1435d37" x="143.80908" y="220.072443" style="fill: #ff0000; stroke: #ff0000"/>
     <use xlink:href="#m81a1435d37" x="161.051535" y="212.62697" style="fill: #ff0000; stroke: #ff0000"/>
     <use xlink:href="#m81a1435d37" x="353.947343" y="43.227015" style="fill: #ff0000; stroke: #ff0000"/>
     <use xlink:href="#m81a1435d37" x="351.432344" y="47.019296" style="fill: #ff0000; stroke: #ff0000"/>
     <use xlink:href="#m81a1435d37" x="246.310023" y="144.40996" style="fill: #ff0000; stroke: #ff0000"/>
     <use xlink:href="#m81a1435d37" x="181.298806" y="193.387217" style="fill: #ff0000; stroke: #ff0000"/>
     <use xlink:href="#m81a1435d37" x="282.977009" y="105.226465" style="fill: #ff0000; stroke: #ff0000"/>
     <use xlink:href="#m81a1435d37" x="203.625327" y="174.401254" style="fill: #ff0000; stroke: #ff0000"/>
     <use xlink:href="#m81a1435d37" x="135.663206" y="222.76471" style="fill: #ff0000; stroke: #ff0000"/>
     <use xlink:href="#m81a1435d37" x="275.602882" y="116.122434" style="fill: #ff0000; stroke: #ff0000"/>
     <use xlink:href="#m81a1435d37" x="111.461797" y="227.900656" style="fill: #ff0000; stroke: #ff0000"/>
     <use xlink:href="#m81a1435d37" x="231.689762" y="153.85013" style="fill: #ff0000; stroke: #ff0000"/>
     <use xlink:href="#m81a1435d37" x="268.585238" y="123.259646" style="fill: #ff0000; stroke: #ff0000"/>
     <use xlink:href="#m81a1435d37" x="363.363068" y="32.201761" style="fill: #ff0000; stroke: #ff0000"/>
     <use xlink:href="#m81a1435d37" x="142.028132" y="222.279516" style="fill: #ff0000; stroke: #ff0000"/>
     <use xlink:href="#m81a1435d37" x="348.81341" y="49.284199" style="fill: #ff0000; stroke: #ff0000"/>
     <use xlink:href="#m81a1435d37" x="278.72712" y="112.87564" style="fill: #ff0000; stroke: #ff0000"/>
     <use xlink:href="#m81a1435d37" x="331.05198" y="63.892798" style="fill: #ff0000; stroke: #ff0000"/>
     <use xlink:href="#m81a1435d37" x="133.527336" y="224.144321" style="fill: #ff0000; stroke: #ff0000"/>
     <use xlink:href="#m81a1435d37" x="305.657016" y="86.611211" style="fill: #ff0000; stroke: #ff0000"/>
     <use xlink:href="#m81a1435d37" x="347.680782" y="50.550717" style="fill: #ff0000; stroke: #ff0000"/>
     <use xlink:href="#m81a1435d37" x="279.818305" y="110.622117" style="fill: #ff0000; stroke: #ff0000"/>
     <use xlink:href="#m81a1435d37" x="328.581656" y="66.204884" style="fill: #ff0000; stroke: #ff0000"/>
     <use xlink:href="#m81a1435d37" x="253.762685" y="138.472164" style="fill: #ff0000; stroke: #ff0000"/>
     <use xlink:href="#m81a1435d37" x="97.282319" y="228.711687" style="fill: #ff0000; stroke: #ff0000"/>
     <use xlink:href="#m81a1435d37" x="82.599551" y="229.16171" style="fill: #ff0000; stroke: #ff0000"/>
     <use xlink:href="#m81a1435d37" x="217.400953" y="164.539024" style="fill: #ff0000; stroke: #ff0000"/>
     <use xlink:href="#m81a1435d37" x="176.416522" y="199.24033" style="fill: #ff0000; stroke: #ff0000"/>
     <use xlink:href="#m81a1435d37" x="351.767318" y="46.817718" style="fill: #ff0000; stroke: #ff0000"/>
     <use xlink:href="#m81a1435d37" x="111.461797" y="227.900656" style="fill: #ff0000; stroke: #ff0000"/>
     <use xlink:href="#m81a1435d37" x="224.927523" y="157.915761" style="fill: #ff0000; stroke: #ff0000"/>
     <use xlink:href="#m81a1435d37" x="353.836714" y="44.288234" style="fill: #ff0000; stroke: #ff0000"/>
     <use xlink:href="#m81a1435d37" x="292.010749" y="94.282628" style="fill: #ff0000; stroke: #ff0000"/>
     <use xlink:href="#m81a1435d37" x="361.86326" y="33.808432" style="fill: #ff0000; stroke: #ff0000"/>
     <use xlink:href="#m81a1435d37" x="289.009932" y="95.913424" style="fill: #ff0000; stroke: #ff0000"/>
     <use xlink:href="#m81a1435d37" x="60.22135" y="229.617929" style="fill: #ff0000; stroke: #ff0000"/>
     <use xlink:href="#m81a1435d37" x="117.581089" y="227.043104" style="fill: #ff0000; stroke: #ff0000"/>
    </g>
   </g>
   <g id="patch_3">
    <path d="M 43.78125 239.758125 
L 43.78125 22.318125 
" style="fill: none; stroke: #000000; stroke-width: 0.8; stroke-linejoin: miter; stroke-linecap: square"/>
   </g>
   <g id="patch_4">
    <path d="M 378.58125 239.758125 
L 378.58125 22.318125 
" style="fill: none; stroke: #000000; stroke-width: 0.8; stroke-linejoin: miter; stroke-linecap: square"/>
   </g>
   <g id="patch_5">
    <path d="M 43.78125 239.758125 
L 378.58125 239.758125 
" style="fill: none; stroke: #000000; stroke-width: 0.8; stroke-linejoin: miter; stroke-linecap: square"/>
   </g>
   <g id="patch_6">
    <path d="M 43.78125 22.318125 
L 378.58125 22.318125 
" style="fill: none; stroke: #000000; stroke-width: 0.8; stroke-linejoin: miter; stroke-linecap: square"/>
   </g>
   <g id="text_14">
    <!-- Pareto Front Plot -->
    <g transform="translate(161.814375 16.318125) scale(0.12 -0.12)">
     <defs>
      <path id="DejaVuSans-50" d="M 1259 4147 
L 1259 2394 
L 2053 2394 
Q 2494 2394 2734 2622 
Q 2975 2850 2975 3272 
Q 2975 3691 2734 3919 
Q 2494 4147 2053 4147 
L 1259 4147 
z
M 628 4666 
L 2053 4666 
Q 2838 4666 3239 4311 
Q 3641 3956 3641 3272 
Q 3641 2581 3239 2228 
Q 2838 1875 2053 1875 
L 1259 1875 
L 1259 0 
L 628 0 
L 628 4666 
z
" transform="scale(0.015625)"/>
      <path id="DejaVuSans-61" d="M 2194 1759 
Q 1497 1759 1228 1600 
Q 959 1441 959 1056 
Q 959 750 1161 570 
Q 1363 391 1709 391 
Q 2188 391 2477 730 
Q 2766 1069 2766 1631 
L 2766 1759 
L 2194 1759 
z
M 3341 1997 
L 3341 0 
L 2766 0 
L 2766 531 
Q 2569 213 2275 61 
Q 1981 -91 1556 -91 
Q 1019 -91 701 211 
Q 384 513 384 1019 
Q 384 1609 779 1909 
Q 1175 2209 1959 2209 
L 2766 2209 
L 2766 2266 
Q 2766 2663 2505 2880 
Q 2244 3097 1772 3097 
Q 1472 3097 1187 3025 
Q 903 2953 641 2809 
L 641 3341 
Q 956 3463 1253 3523 
Q 1550 3584 1831 3584 
Q 2591 3584 2966 3190 
Q 3341 2797 3341 1997 
z
" transform="scale(0.015625)"/>
      <path id="DejaVuSans-72" d="M 2631 2963 
Q 2534 3019 2420 3045 
Q 2306 3072 2169 3072 
Q 1681 3072 1420 2755 
Q 1159 2438 1159 1844 
L 1159 0 
L 581 0 
L 581 3500 
L 1159 3500 
L 1159 2956 
Q 1341 3275 1631 3429 
Q 1922 3584 2338 3584 
Q 2397 3584 2469 3576 
Q 2541 3569 2628 3553 
L 2631 2963 
z
" transform="scale(0.015625)"/>
      <path id="DejaVuSans-65" d="M 3597 1894 
L 3597 1613 
L 953 1613 
Q 991 1019 1311 708 
Q 1631 397 2203 397 
Q 2534 397 2845 478 
Q 3156 559 3463 722 
L 3463 178 
Q 3153 47 2828 -22 
Q 2503 -91 2169 -91 
Q 1331 -91 842 396 
Q 353 884 353 1716 
Q 353 2575 817 3079 
Q 1281 3584 2069 3584 
Q 2775 3584 3186 3129 
Q 3597 2675 3597 1894 
z
M 3022 2063 
Q 3016 2534 2758 2815 
Q 2500 3097 2075 3097 
Q 1594 3097 1305 2825 
Q 1016 2553 972 2059 
L 3022 2063 
z
" transform="scale(0.015625)"/>
      <path id="DejaVuSans-74" d="M 1172 4494 
L 1172 3500 
L 2356 3500 
L 2356 3053 
L 1172 3053 
L 1172 1153 
Q 1172 725 1289 603 
Q 1406 481 1766 481 
L 2356 481 
L 2356 0 
L 1766 0 
Q 1100 0 847 248 
Q 594 497 594 1153 
L 594 3053 
L 172 3053 
L 172 3500 
L 594 3500 
L 594 4494 
L 1172 4494 
z
" transform="scale(0.015625)"/>
      <path id="DejaVuSans-6f" d="M 1959 3097 
Q 1497 3097 1228 2736 
Q 959 2375 959 1747 
Q 959 1119 1226 758 
Q 1494 397 1959 397 
Q 2419 397 2687 759 
Q 2956 1122 2956 1747 
Q 2956 2369 2687 2733 
Q 2419 3097 1959 3097 
z
M 1959 3584 
Q 2709 3584 3137 3096 
Q 3566 2609 3566 1747 
Q 3566 888 3137 398 
Q 2709 -91 1959 -91 
Q 1206 -91 779 398 
Q 353 888 353 1747 
Q 353 2609 779 3096 
Q 1206 3584 1959 3584 
z
" transform="scale(0.015625)"/>
      <path id="DejaVuSans-20" transform="scale(0.015625)"/>
      <path id="DejaVuSans-6e" d="M 3513 2113 
L 3513 0 
L 2938 0 
L 2938 2094 
Q 2938 2591 2744 2837 
Q 2550 3084 2163 3084 
Q 1697 3084 1428 2787 
Q 1159 2491 1159 1978 
L 1159 0 
L 581 0 
L 581 3500 
L 1159 3500 
L 1159 2956 
Q 1366 3272 1645 3428 
Q 1925 3584 2291 3584 
Q 2894 3584 3203 3211 
Q 3513 2838 3513 2113 
z
" transform="scale(0.015625)"/>
      <path id="DejaVuSans-6c" d="M 603 4863 
L 1178 4863 
L 1178 0 
L 603 0 
L 603 4863 
z
" transform="scale(0.015625)"/>
     </defs>
     <use xlink:href="#DejaVuSans-50"/>
     <use xlink:href="#DejaVuSans-61" x="55.802734"/>
     <use xlink:href="#DejaVuSans-72" x="117.082031"/>
     <use xlink:href="#DejaVuSans-65" x="155.945312"/>
     <use xlink:href="#DejaVuSans-74" x="217.46875"/>
     <use xlink:href="#DejaVuSans-6f" x="256.677734"/>
     <use xlink:href="#DejaVuSans-20" x="317.859375"/>
     <use xlink:href="#DejaVuSans-46" x="349.646484"/>
     <use xlink:href="#DejaVuSans-72" x="399.916016"/>
     <use xlink:href="#DejaVuSans-6f" x="438.779297"/>
     <use xlink:href="#DejaVuSans-6e" x="499.960938"/>
     <use xlink:href="#DejaVuSans-74" x="563.339844"/>
     <use xlink:href="#DejaVuSans-20" x="602.548828"/>
     <use xlink:href="#DejaVuSans-50" x="634.335938"/>
     <use xlink:href="#DejaVuSans-6c" x="694.638672"/>
     <use xlink:href="#DejaVuSans-6f" x="722.421875"/>
     <use xlink:href="#DejaVuSans-74" x="783.603516"/>
    </g>
   </g>
   <g id="legend_1">
    <g id="patch_7">
     <path d="M 50.78125 44.99625 
L 127.4 44.99625 
Q 129.4 44.99625 129.4 42.99625 
L 129.4 29.318125 
Q 129.4 27.318125 127.4 27.318125 
L 50.78125 27.318125 
Q 48.78125 27.318125 48.78125 29.318125 
L 48.78125 42.99625 
Q 48.78125 44.99625 50.78125 44.99625 
z
" style="fill: #ffffff; opacity: 0.8; stroke: #cccccc; stroke-linejoin: miter"/>
    </g>
    <g id="line2d_24">
     <g>
      <use xlink:href="#m81a1435d37" x="62.78125" y="35.416562" style="fill: #ff0000; stroke: #ff0000"/>
     </g>
    </g>
    <g id="text_15">
     <!-- MOEA PF -->
     <g transform="translate(80.78125 38.916562) scale(0.1 -0.1)">
      <defs>
       <path id="DejaVuSans-4d" d="M 628 4666 
L 1569 4666 
L 2759 1491 
L 3956 4666 
L 4897 4666 
L 4897 0 
L 4281 0 
L 4281 4097 
L 3078 897 
L 2444 897 
L 1241 4097 
L 1241 0 
L 628 0 
L 628 4666 
z
" transform="scale(0.015625)"/>
       <path id="DejaVuSans-4f" d="M 2522 4238 
Q 1834 4238 1429 3725 
Q 1025 3213 1025 2328 
Q 1025 1447 1429 934 
Q 1834 422 2522 422 
Q 3209 422 3611 934 
Q 4013 1447 4013 2328 
Q 4013 3213 3611 3725 
Q 3209 4238 2522 4238 
z
M 2522 4750 
Q 3503 4750 4090 4092 
Q 4678 3434 4678 2328 
Q 4678 1225 4090 567 
Q 3503 -91 2522 -91 
Q 1538 -91 948 565 
Q 359 1222 359 2328 
Q 359 3434 948 4092 
Q 1538 4750 2522 4750 
z
" transform="scale(0.015625)"/>
       <path id="DejaVuSans-45" d="M 628 4666 
L 3578 4666 
L 3578 4134 
L 1259 4134 
L 1259 2753 
L 3481 2753 
L 3481 2222 
L 1259 2222 
L 1259 531 
L 3634 531 
L 3634 0 
L 628 0 
L 628 4666 
z
" transform="scale(0.015625)"/>
       <path id="DejaVuSans-41" d="M 2188 4044 
L 1331 1722 
L 3047 1722 
L 2188 4044 
z
M 1831 4666 
L 2547 4666 
L 4325 0 
L 3669 0 
L 3244 1197 
L 1141 1197 
L 716 0 
L 50 0 
L 1831 4666 
z
" transform="scale(0.015625)"/>
      </defs>
      <use xlink:href="#DejaVuSans-4d"/>
      <use xlink:href="#DejaVuSans-4f" x="86.279297"/>
      <use xlink:href="#DejaVuSans-45" x="164.990234"/>
      <use xlink:href="#DejaVuSans-41" x="228.173828"/>
      <use xlink:href="#DejaVuSans-20" x="296.582031"/>
      <use xlink:href="#DejaVuSans-50" x="328.369141"/>
      <use xlink:href="#DejaVuSans-46" x="388.671875"/>
     </g>
    </g>
   </g>
  </g>
 </g>
 <defs>
  <clipPath id="pa4b0186014">
   <rect x="43.78125" y="22.318125" width="334.8" height="217.44"/>
  </clipPath>
 </defs>
</svg>
