<?xml version="1.0" encoding="utf-8" standalone="no"?>
<!DOCTYPE svg PUBLIC "-//W3C//DTD SVG 1.1//EN"
  "http://www.w3.org/Graphics/SVG/1.1/DTD/svg11.dtd">
<svg xmlns:xlink="http://www.w3.org/1999/xlink" width="392.14375pt" height="277.314375pt" viewBox="0 0 392.14375 277.314375" xmlns="http://www.w3.org/2000/svg" version="1.1">
 <metadata>
  <rdf:RDF xmlns:dc="http://purl.org/dc/elements/1.1/" xmlns:cc="http://creativecommons.org/ns#" xmlns:rdf="http://www.w3.org/1999/02/22-rdf-syntax-ns#">
   <cc:Work>
    <dc:type rdf:resource="http://purl.org/dc/dcmitype/StillImage"/>
    <dc:date>2024-04-06T23:04:03.662658</dc:date>
    <dc:format>image/svg+xml</dc:format>
    <dc:creator>
     <cc:Agent>
      <dc:title>Matplotlib v3.7.1, https://matplotlib.org/</dc:title>
     </cc:Agent>
    </dc:creator>
   </cc:Work>
  </rdf:RDF>
 </metadata>
 <defs>
  <style type="text/css">*{stroke-linejoin: round; stroke-linecap: butt}</style>
 </defs>
 <g id="figure_1">
  <g id="patch_1">
   <path d="M 0 277.314375 
L 392.14375 277.314375 
L 392.14375 0 
L 0 0 
z
" style="fill: #ffffff"/>
  </g>
  <g id="axes_1">
   <g id="patch_2">
    <path d="M 50.14375 239.758125 
L 384.94375 239.758125 
L 384.94375 22.318125 
L 50.14375 22.318125 
z
" style="fill: #ffffff"/>
   </g>
   <g id="matplotlib.axis_1">
    <g id="xtick_1">
     <g id="line2d_1">
      <path d="M 65.057568 239.758125 
L 65.057568 22.318125 
" clip-path="url(#pf288c8304f)" style="fill: none; stroke: #b0b0b0; stroke-width: 0.8; stroke-linecap: square"/>
     </g>
     <g id="line2d_2">
      <defs>
       <path id="ma25d54436c" d="M 0 0 
L 0 3.5 
" style="stroke: #000000; stroke-width: 0.8"/>
      </defs>
      <g>
       <use xlink:href="#ma25d54436c" x="65.057568" y="239.758125" style="stroke: #000000; stroke-width: 0.8"/>
      </g>
     </g>
     <g id="text_1">
      <!-- 0 -->
      <g transform="translate(61.876318 254.356562) scale(0.1 -0.1)">
       <defs>
        <path id="DejaVuSans-30" d="M 2034 4250 
Q 1547 4250 1301 3770 
Q 1056 3291 1056 2328 
Q 1056 1369 1301 889 
Q 1547 409 2034 409 
Q 2525 409 2770 889 
Q 3016 1369 3016 2328 
Q 3016 3291 2770 3770 
Q 2525 4250 2034 4250 
z
M 2034 4750 
Q 2819 4750 3233 4129 
Q 3647 3509 3647 2328 
Q 3647 1150 3233 529 
Q 2819 -91 2034 -91 
Q 1250 -91 836 529 
Q 422 1150 422 2328 
Q 422 3509 836 4129 
Q 1250 4750 2034 4750 
z
" transform="scale(0.015625)"/>
       </defs>
       <use xlink:href="#DejaVuSans-30"/>
      </g>
     </g>
    </g>
    <g id="xtick_2">
     <g id="line2d_3">
      <path d="M 125.930295 239.758125 
L 125.930295 22.318125 
" clip-path="url(#pf288c8304f)" style="fill: none; stroke: #b0b0b0; stroke-width: 0.8; stroke-linecap: square"/>
     </g>
     <g id="line2d_4">
      <g>
       <use xlink:href="#ma25d54436c" x="125.930295" y="239.758125" style="stroke: #000000; stroke-width: 0.8"/>
      </g>
     </g>
     <g id="text_2">
      <!-- 200 -->
      <g transform="translate(116.386545 254.356562) scale(0.1 -0.1)">
       <defs>
        <path id="DejaVuSans-32" d="M 1228 531 
L 3431 531 
L 3431 0 
L 469 0 
L 469 531 
Q 828 903 1448 1529 
Q 2069 2156 2228 2338 
Q 2531 2678 2651 2914 
Q 2772 3150 2772 3378 
Q 2772 3750 2511 3984 
Q 2250 4219 1831 4219 
Q 1534 4219 1204 4116 
Q 875 4013 500 3803 
L 500 4441 
Q 881 4594 1212 4672 
Q 1544 4750 1819 4750 
Q 2544 4750 2975 4387 
Q 3406 4025 3406 3419 
Q 3406 3131 3298 2873 
Q 3191 2616 2906 2266 
Q 2828 2175 2409 1742 
Q 1991 1309 1228 531 
z
" transform="scale(0.015625)"/>
       </defs>
       <use xlink:href="#DejaVuSans-32"/>
       <use xlink:href="#DejaVuSans-30" x="63.623047"/>
       <use xlink:href="#DejaVuSans-30" x="127.246094"/>
      </g>
     </g>
    </g>
    <g id="xtick_3">
     <g id="line2d_5">
      <path d="M 186.803023 239.758125 
L 186.803023 22.318125 
" clip-path="url(#pf288c8304f)" style="fill: none; stroke: #b0b0b0; stroke-width: 0.8; stroke-linecap: square"/>
     </g>
     <g id="line2d_6">
      <g>
       <use xlink:href="#ma25d54436c" x="186.803023" y="239.758125" style="stroke: #000000; stroke-width: 0.8"/>
      </g>
     </g>
     <g id="text_3">
      <!-- 400 -->
      <g transform="translate(177.259273 254.356562) scale(0.1 -0.1)">
       <defs>
        <path id="DejaVuSans-34" d="M 2419 4116 
L 825 1625 
L 2419 1625 
L 2419 4116 
z
M 2253 4666 
L 3047 4666 
L 3047 1625 
L 3713 1625 
L 3713 1100 
L 3047 1100 
L 3047 0 
L 2419 0 
L 2419 1100 
L 313 1100 
L 313 1709 
L 2253 4666 
z
" transform="scale(0.015625)"/>
       </defs>
       <use xlink:href="#DejaVuSans-34"/>
       <use xlink:href="#DejaVuSans-30" x="63.623047"/>
       <use xlink:href="#DejaVuSans-30" x="127.246094"/>
      </g>
     </g>
    </g>
    <g id="xtick_4">
     <g id="line2d_7">
      <path d="M 247.67575 239.758125 
L 247.67575 22.318125 
" clip-path="url(#pf288c8304f)" style="fill: none; stroke: #b0b0b0; stroke-width: 0.8; stroke-linecap: square"/>
     </g>
     <g id="line2d_8">
      <g>
       <use xlink:href="#ma25d54436c" x="247.67575" y="239.758125" style="stroke: #000000; stroke-width: 0.8"/>
      </g>
     </g>
     <g id="text_4">
      <!-- 600 -->
      <g transform="translate(238.132 254.356562) scale(0.1 -0.1)">
       <defs>
        <path id="DejaVuSans-36" d="M 2113 2584 
Q 1688 2584 1439 2293 
Q 1191 2003 1191 1497 
Q 1191 994 1439 701 
Q 1688 409 2113 409 
Q 2538 409 2786 701 
Q 3034 994 3034 1497 
Q 3034 2003 2786 2293 
Q 2538 2584 2113 2584 
z
M 3366 4563 
L 3366 3988 
Q 3128 4100 2886 4159 
Q 2644 4219 2406 4219 
Q 1781 4219 1451 3797 
Q 1122 3375 1075 2522 
Q 1259 2794 1537 2939 
Q 1816 3084 2150 3084 
Q 2853 3084 3261 2657 
Q 3669 2231 3669 1497 
Q 3669 778 3244 343 
Q 2819 -91 2113 -91 
Q 1303 -91 875 529 
Q 447 1150 447 2328 
Q 447 3434 972 4092 
Q 1497 4750 2381 4750 
Q 2619 4750 2861 4703 
Q 3103 4656 3366 4563 
z
" transform="scale(0.015625)"/>
       </defs>
       <use xlink:href="#DejaVuSans-36"/>
       <use xlink:href="#DejaVuSans-30" x="63.623047"/>
       <use xlink:href="#DejaVuSans-30" x="127.246094"/>
      </g>
     </g>
    </g>
    <g id="xtick_5">
     <g id="line2d_9">
      <path d="M 308.548477 239.758125 
L 308.548477 22.318125 
" clip-path="url(#pf288c8304f)" style="fill: none; stroke: #b0b0b0; stroke-width: 0.8; stroke-linecap: square"/>
     </g>
     <g id="line2d_10">
      <g>
       <use xlink:href="#ma25d54436c" x="308.548477" y="239.758125" style="stroke: #000000; stroke-width: 0.8"/>
      </g>
     </g>
     <g id="text_5">
      <!-- 800 -->
      <g transform="translate(299.004727 254.356562) scale(0.1 -0.1)">
       <defs>
        <path id="DejaVuSans-38" d="M 2034 2216 
Q 1584 2216 1326 1975 
Q 1069 1734 1069 1313 
Q 1069 891 1326 650 
Q 1584 409 2034 409 
Q 2484 409 2743 651 
Q 3003 894 3003 1313 
Q 3003 1734 2745 1975 
Q 2488 2216 2034 2216 
z
M 1403 2484 
Q 997 2584 770 2862 
Q 544 3141 544 3541 
Q 544 4100 942 4425 
Q 1341 4750 2034 4750 
Q 2731 4750 3128 4425 
Q 3525 4100 3525 3541 
Q 3525 3141 3298 2862 
Q 3072 2584 2669 2484 
Q 3125 2378 3379 2068 
Q 3634 1759 3634 1313 
Q 3634 634 3220 271 
Q 2806 -91 2034 -91 
Q 1263 -91 848 271 
Q 434 634 434 1313 
Q 434 1759 690 2068 
Q 947 2378 1403 2484 
z
M 1172 3481 
Q 1172 3119 1398 2916 
Q 1625 2713 2034 2713 
Q 2441 2713 2670 2916 
Q 2900 3119 2900 3481 
Q 2900 3844 2670 4047 
Q 2441 4250 2034 4250 
Q 1625 4250 1398 4047 
Q 1172 3844 1172 3481 
z
" transform="scale(0.015625)"/>
       </defs>
       <use xlink:href="#DejaVuSans-38"/>
       <use xlink:href="#DejaVuSans-30" x="63.623047"/>
       <use xlink:href="#DejaVuSans-30" x="127.246094"/>
      </g>
     </g>
    </g>
    <g id="xtick_6">
     <g id="line2d_11">
      <path d="M 369.421205 239.758125 
L 369.421205 22.318125 
" clip-path="url(#pf288c8304f)" style="fill: none; stroke: #b0b0b0; stroke-width: 0.8; stroke-linecap: square"/>
     </g>
     <g id="line2d_12">
      <g>
       <use xlink:href="#ma25d54436c" x="369.421205" y="239.758125" style="stroke: #000000; stroke-width: 0.8"/>
      </g>
     </g>
     <g id="text_6">
      <!-- 1000 -->
      <g transform="translate(356.696205 254.356562) scale(0.1 -0.1)">
       <defs>
        <path id="DejaVuSans-31" d="M 794 531 
L 1825 531 
L 1825 4091 
L 703 3866 
L 703 4441 
L 1819 4666 
L 2450 4666 
L 2450 531 
L 3481 531 
L 3481 0 
L 794 0 
L 794 531 
z
" transform="scale(0.015625)"/>
       </defs>
       <use xlink:href="#DejaVuSans-31"/>
       <use xlink:href="#DejaVuSans-30" x="63.623047"/>
       <use xlink:href="#DejaVuSans-30" x="127.246094"/>
       <use xlink:href="#DejaVuSans-30" x="190.869141"/>
      </g>
     </g>
    </g>
    <g id="text_7">
     <!-- Generation Number -->
     <g transform="translate(167.975781 268.034687) scale(0.1 -0.1)">
      <defs>
       <path id="DejaVuSans-47" d="M 3809 666 
L 3809 1919 
L 2778 1919 
L 2778 2438 
L 4434 2438 
L 4434 434 
Q 4069 175 3628 42 
Q 3188 -91 2688 -91 
Q 1594 -91 976 548 
Q 359 1188 359 2328 
Q 359 3472 976 4111 
Q 1594 4750 2688 4750 
Q 3144 4750 3555 4637 
Q 3966 4525 4313 4306 
L 4313 3634 
Q 3963 3931 3569 4081 
Q 3175 4231 2741 4231 
Q 1884 4231 1454 3753 
Q 1025 3275 1025 2328 
Q 1025 1384 1454 906 
Q 1884 428 2741 428 
Q 3075 428 3337 486 
Q 3600 544 3809 666 
z
" transform="scale(0.015625)"/>
       <path id="DejaVuSans-65" d="M 3597 1894 
L 3597 1613 
L 953 1613 
Q 991 1019 1311 708 
Q 1631 397 2203 397 
Q 2534 397 2845 478 
Q 3156 559 3463 722 
L 3463 178 
Q 3153 47 2828 -22 
Q 2503 -91 2169 -91 
Q 1331 -91 842 396 
Q 353 884 353 1716 
Q 353 2575 817 3079 
Q 1281 3584 2069 3584 
Q 2775 3584 3186 3129 
Q 3597 2675 3597 1894 
z
M 3022 2063 
Q 3016 2534 2758 2815 
Q 2500 3097 2075 3097 
Q 1594 3097 1305 2825 
Q 1016 2553 972 2059 
L 3022 2063 
z
" transform="scale(0.015625)"/>
       <path id="DejaVuSans-6e" d="M 3513 2113 
L 3513 0 
L 2938 0 
L 2938 2094 
Q 2938 2591 2744 2837 
Q 2550 3084 2163 3084 
Q 1697 3084 1428 2787 
Q 1159 2491 1159 1978 
L 1159 0 
L 581 0 
L 581 3500 
L 1159 3500 
L 1159 2956 
Q 1366 3272 1645 3428 
Q 1925 3584 2291 3584 
Q 2894 3584 3203 3211 
Q 3513 2838 3513 2113 
z
" transform="scale(0.015625)"/>
       <path id="DejaVuSans-72" d="M 2631 2963 
Q 2534 3019 2420 3045 
Q 2306 3072 2169 3072 
Q 1681 3072 1420 2755 
Q 1159 2438 1159 1844 
L 1159 0 
L 581 0 
L 581 3500 
L 1159 3500 
L 1159 2956 
Q 1341 3275 1631 3429 
Q 1922 3584 2338 3584 
Q 2397 3584 2469 3576 
Q 2541 3569 2628 3553 
L 2631 2963 
z
" transform="scale(0.015625)"/>
       <path id="DejaVuSans-61" d="M 2194 1759 
Q 1497 1759 1228 1600 
Q 959 1441 959 1056 
Q 959 750 1161 570 
Q 1363 391 1709 391 
Q 2188 391 2477 730 
Q 2766 1069 2766 1631 
L 2766 1759 
L 2194 1759 
z
M 3341 1997 
L 3341 0 
L 2766 0 
L 2766 531 
Q 2569 213 2275 61 
Q 1981 -91 1556 -91 
Q 1019 -91 701 211 
Q 384 513 384 1019 
Q 384 1609 779 1909 
Q 1175 2209 1959 2209 
L 2766 2209 
L 2766 2266 
Q 2766 2663 2505 2880 
Q 2244 3097 1772 3097 
Q 1472 3097 1187 3025 
Q 903 2953 641 2809 
L 641 3341 
Q 956 3463 1253 3523 
Q 1550 3584 1831 3584 
Q 2591 3584 2966 3190 
Q 3341 2797 3341 1997 
z
" transform="scale(0.015625)"/>
       <path id="DejaVuSans-74" d="M 1172 4494 
L 1172 3500 
L 2356 3500 
L 2356 3053 
L 1172 3053 
L 1172 1153 
Q 1172 725 1289 603 
Q 1406 481 1766 481 
L 2356 481 
L 2356 0 
L 1766 0 
Q 1100 0 847 248 
Q 594 497 594 1153 
L 594 3053 
L 172 3053 
L 172 3500 
L 594 3500 
L 594 4494 
L 1172 4494 
z
" transform="scale(0.015625)"/>
       <path id="DejaVuSans-69" d="M 603 3500 
L 1178 3500 
L 1178 0 
L 603 0 
L 603 3500 
z
M 603 4863 
L 1178 4863 
L 1178 4134 
L 603 4134 
L 603 4863 
z
" transform="scale(0.015625)"/>
       <path id="DejaVuSans-6f" d="M 1959 3097 
Q 1497 3097 1228 2736 
Q 959 2375 959 1747 
Q 959 1119 1226 758 
Q 1494 397 1959 397 
Q 2419 397 2687 759 
Q 2956 1122 2956 1747 
Q 2956 2369 2687 2733 
Q 2419 3097 1959 3097 
z
M 1959 3584 
Q 2709 3584 3137 3096 
Q 3566 2609 3566 1747 
Q 3566 888 3137 398 
Q 2709 -91 1959 -91 
Q 1206 -91 779 398 
Q 353 888 353 1747 
Q 353 2609 779 3096 
Q 1206 3584 1959 3584 
z
" transform="scale(0.015625)"/>
       <path id="DejaVuSans-20" transform="scale(0.015625)"/>
       <path id="DejaVuSans-4e" d="M 628 4666 
L 1478 4666 
L 3547 763 
L 3547 4666 
L 4159 4666 
L 4159 0 
L 3309 0 
L 1241 3903 
L 1241 0 
L 628 0 
L 628 4666 
z
" transform="scale(0.015625)"/>
       <path id="DejaVuSans-75" d="M 544 1381 
L 544 3500 
L 1119 3500 
L 1119 1403 
Q 1119 906 1312 657 
Q 1506 409 1894 409 
Q 2359 409 2629 706 
Q 2900 1003 2900 1516 
L 2900 3500 
L 3475 3500 
L 3475 0 
L 2900 0 
L 2900 538 
Q 2691 219 2414 64 
Q 2138 -91 1772 -91 
Q 1169 -91 856 284 
Q 544 659 544 1381 
z
M 1991 3584 
L 1991 3584 
z
" transform="scale(0.015625)"/>
       <path id="DejaVuSans-6d" d="M 3328 2828 
Q 3544 3216 3844 3400 
Q 4144 3584 4550 3584 
Q 5097 3584 5394 3201 
Q 5691 2819 5691 2113 
L 5691 0 
L 5113 0 
L 5113 2094 
Q 5113 2597 4934 2840 
Q 4756 3084 4391 3084 
Q 3944 3084 3684 2787 
Q 3425 2491 3425 1978 
L 3425 0 
L 2847 0 
L 2847 2094 
Q 2847 2600 2669 2842 
Q 2491 3084 2119 3084 
Q 1678 3084 1418 2786 
Q 1159 2488 1159 1978 
L 1159 0 
L 581 0 
L 581 3500 
L 1159 3500 
L 1159 2956 
Q 1356 3278 1631 3431 
Q 1906 3584 2284 3584 
Q 2666 3584 2933 3390 
Q 3200 3197 3328 2828 
z
" transform="scale(0.015625)"/>
       <path id="DejaVuSans-62" d="M 3116 1747 
Q 3116 2381 2855 2742 
Q 2594 3103 2138 3103 
Q 1681 3103 1420 2742 
Q 1159 2381 1159 1747 
Q 1159 1113 1420 752 
Q 1681 391 2138 391 
Q 2594 391 2855 752 
Q 3116 1113 3116 1747 
z
M 1159 2969 
Q 1341 3281 1617 3432 
Q 1894 3584 2278 3584 
Q 2916 3584 3314 3078 
Q 3713 2572 3713 1747 
Q 3713 922 3314 415 
Q 2916 -91 2278 -91 
Q 1894 -91 1617 61 
Q 1341 213 1159 525 
L 1159 0 
L 581 0 
L 581 4863 
L 1159 4863 
L 1159 2969 
z
" transform="scale(0.015625)"/>
      </defs>
      <use xlink:href="#DejaVuSans-47"/>
      <use xlink:href="#DejaVuSans-65" x="77.490234"/>
      <use xlink:href="#DejaVuSans-6e" x="139.013672"/>
      <use xlink:href="#DejaVuSans-65" x="202.392578"/>
      <use xlink:href="#DejaVuSans-72" x="263.916016"/>
      <use xlink:href="#DejaVuSans-61" x="305.029297"/>
      <use xlink:href="#DejaVuSans-74" x="366.308594"/>
      <use xlink:href="#DejaVuSans-69" x="405.517578"/>
      <use xlink:href="#DejaVuSans-6f" x="433.300781"/>
      <use xlink:href="#DejaVuSans-6e" x="494.482422"/>
      <use xlink:href="#DejaVuSans-20" x="557.861328"/>
      <use xlink:href="#DejaVuSans-4e" x="589.648438"/>
      <use xlink:href="#DejaVuSans-75" x="664.453125"/>
      <use xlink:href="#DejaVuSans-6d" x="727.832031"/>
      <use xlink:href="#DejaVuSans-62" x="825.244141"/>
      <use xlink:href="#DejaVuSans-65" x="888.720703"/>
      <use xlink:href="#DejaVuSans-72" x="950.244141"/>
     </g>
    </g>
   </g>
   <g id="matplotlib.axis_2">
    <g id="ytick_1">
     <g id="line2d_13">
      <path d="M 50.14375 236.774282 
L 384.94375 236.774282 
" clip-path="url(#pf288c8304f)" style="fill: none; stroke: #b0b0b0; stroke-width: 0.8; stroke-linecap: square"/>
     </g>
     <g id="line2d_14">
      <defs>
       <path id="m8bbdb8aaf1" d="M 0 0 
L -3.5 0 
" style="stroke: #000000; stroke-width: 0.8"/>
      </defs>
      <g>
       <use xlink:href="#m8bbdb8aaf1" x="50.14375" y="236.774282" style="stroke: #000000; stroke-width: 0.8"/>
      </g>
     </g>
     <g id="text_8">
      <!-- 0.00 -->
      <g transform="translate(20.878125 240.573501) scale(0.1 -0.1)">
       <defs>
        <path id="DejaVuSans-2e" d="M 684 794 
L 1344 794 
L 1344 0 
L 684 0 
L 684 794 
z
" transform="scale(0.015625)"/>
       </defs>
       <use xlink:href="#DejaVuSans-30"/>
       <use xlink:href="#DejaVuSans-2e" x="63.623047"/>
       <use xlink:href="#DejaVuSans-30" x="95.410156"/>
       <use xlink:href="#DejaVuSans-30" x="159.033203"/>
      </g>
     </g>
    </g>
    <g id="ytick_2">
     <g id="line2d_15">
      <path d="M 50.14375 205.890842 
L 384.94375 205.890842 
" clip-path="url(#pf288c8304f)" style="fill: none; stroke: #b0b0b0; stroke-width: 0.8; stroke-linecap: square"/>
     </g>
     <g id="line2d_16">
      <g>
       <use xlink:href="#m8bbdb8aaf1" x="50.14375" y="205.890842" style="stroke: #000000; stroke-width: 0.8"/>
      </g>
     </g>
     <g id="text_9">
      <!-- 0.01 -->
      <g transform="translate(20.878125 209.690061) scale(0.1 -0.1)">
       <use xlink:href="#DejaVuSans-30"/>
       <use xlink:href="#DejaVuSans-2e" x="63.623047"/>
       <use xlink:href="#DejaVuSans-30" x="95.410156"/>
       <use xlink:href="#DejaVuSans-31" x="159.033203"/>
      </g>
     </g>
    </g>
    <g id="ytick_3">
     <g id="line2d_17">
      <path d="M 50.14375 175.007402 
L 384.94375 175.007402 
" clip-path="url(#pf288c8304f)" style="fill: none; stroke: #b0b0b0; stroke-width: 0.8; stroke-linecap: square"/>
     </g>
     <g id="line2d_18">
      <g>
       <use xlink:href="#m8bbdb8aaf1" x="50.14375" y="175.007402" style="stroke: #000000; stroke-width: 0.8"/>
      </g>
     </g>
     <g id="text_10">
      <!-- 0.02 -->
      <g transform="translate(20.878125 178.806621) scale(0.1 -0.1)">
       <use xlink:href="#DejaVuSans-30"/>
       <use xlink:href="#DejaVuSans-2e" x="63.623047"/>
       <use xlink:href="#DejaVuSans-30" x="95.410156"/>
       <use xlink:href="#DejaVuSans-32" x="159.033203"/>
      </g>
     </g>
    </g>
    <g id="ytick_4">
     <g id="line2d_19">
      <path d="M 50.14375 144.123962 
L 384.94375 144.123962 
" clip-path="url(#pf288c8304f)" style="fill: none; stroke: #b0b0b0; stroke-width: 0.8; stroke-linecap: square"/>
     </g>
     <g id="line2d_20">
      <g>
       <use xlink:href="#m8bbdb8aaf1" x="50.14375" y="144.123962" style="stroke: #000000; stroke-width: 0.8"/>
      </g>
     </g>
     <g id="text_11">
      <!-- 0.03 -->
      <g transform="translate(20.878125 147.923181) scale(0.1 -0.1)">
       <defs>
        <path id="DejaVuSans-33" d="M 2597 2516 
Q 3050 2419 3304 2112 
Q 3559 1806 3559 1356 
Q 3559 666 3084 287 
Q 2609 -91 1734 -91 
Q 1441 -91 1130 -33 
Q 819 25 488 141 
L 488 750 
Q 750 597 1062 519 
Q 1375 441 1716 441 
Q 2309 441 2620 675 
Q 2931 909 2931 1356 
Q 2931 1769 2642 2001 
Q 2353 2234 1838 2234 
L 1294 2234 
L 1294 2753 
L 1863 2753 
Q 2328 2753 2575 2939 
Q 2822 3125 2822 3475 
Q 2822 3834 2567 4026 
Q 2313 4219 1838 4219 
Q 1578 4219 1281 4162 
Q 984 4106 628 3988 
L 628 4550 
Q 988 4650 1302 4700 
Q 1616 4750 1894 4750 
Q 2613 4750 3031 4423 
Q 3450 4097 3450 3541 
Q 3450 3153 3228 2886 
Q 3006 2619 2597 2516 
z
" transform="scale(0.015625)"/>
       </defs>
       <use xlink:href="#DejaVuSans-30"/>
       <use xlink:href="#DejaVuSans-2e" x="63.623047"/>
       <use xlink:href="#DejaVuSans-30" x="95.410156"/>
       <use xlink:href="#DejaVuSans-33" x="159.033203"/>
      </g>
     </g>
    </g>
    <g id="ytick_5">
     <g id="line2d_21">
      <path d="M 50.14375 113.240522 
L 384.94375 113.240522 
" clip-path="url(#pf288c8304f)" style="fill: none; stroke: #b0b0b0; stroke-width: 0.8; stroke-linecap: square"/>
     </g>
     <g id="line2d_22">
      <g>
       <use xlink:href="#m8bbdb8aaf1" x="50.14375" y="113.240522" style="stroke: #000000; stroke-width: 0.8"/>
      </g>
     </g>
     <g id="text_12">
      <!-- 0.04 -->
      <g transform="translate(20.878125 117.039741) scale(0.1 -0.1)">
       <use xlink:href="#DejaVuSans-30"/>
       <use xlink:href="#DejaVuSans-2e" x="63.623047"/>
       <use xlink:href="#DejaVuSans-30" x="95.410156"/>
       <use xlink:href="#DejaVuSans-34" x="159.033203"/>
      </g>
     </g>
    </g>
    <g id="ytick_6">
     <g id="line2d_23">
      <path d="M 50.14375 82.357082 
L 384.94375 82.357082 
" clip-path="url(#pf288c8304f)" style="fill: none; stroke: #b0b0b0; stroke-width: 0.8; stroke-linecap: square"/>
     </g>
     <g id="line2d_24">
      <g>
       <use xlink:href="#m8bbdb8aaf1" x="50.14375" y="82.357082" style="stroke: #000000; stroke-width: 0.8"/>
      </g>
     </g>
     <g id="text_13">
      <!-- 0.05 -->
      <g transform="translate(20.878125 86.156301) scale(0.1 -0.1)">
       <defs>
        <path id="DejaVuSans-35" d="M 691 4666 
L 3169 4666 
L 3169 4134 
L 1269 4134 
L 1269 2991 
Q 1406 3038 1543 3061 
Q 1681 3084 1819 3084 
Q 2600 3084 3056 2656 
Q 3513 2228 3513 1497 
Q 3513 744 3044 326 
Q 2575 -91 1722 -91 
Q 1428 -91 1123 -41 
Q 819 9 494 109 
L 494 744 
Q 775 591 1075 516 
Q 1375 441 1709 441 
Q 2250 441 2565 725 
Q 2881 1009 2881 1497 
Q 2881 1984 2565 2268 
Q 2250 2553 1709 2553 
Q 1456 2553 1204 2497 
Q 953 2441 691 2322 
L 691 4666 
z
" transform="scale(0.015625)"/>
       </defs>
       <use xlink:href="#DejaVuSans-30"/>
       <use xlink:href="#DejaVuSans-2e" x="63.623047"/>
       <use xlink:href="#DejaVuSans-30" x="95.410156"/>
       <use xlink:href="#DejaVuSans-35" x="159.033203"/>
      </g>
     </g>
    </g>
    <g id="ytick_7">
     <g id="line2d_25">
      <path d="M 50.14375 51.473642 
L 384.94375 51.473642 
" clip-path="url(#pf288c8304f)" style="fill: none; stroke: #b0b0b0; stroke-width: 0.8; stroke-linecap: square"/>
     </g>
     <g id="line2d_26">
      <g>
       <use xlink:href="#m8bbdb8aaf1" x="50.14375" y="51.473642" style="stroke: #000000; stroke-width: 0.8"/>
      </g>
     </g>
     <g id="text_14">
      <!-- 0.06 -->
      <g transform="translate(20.878125 55.272861) scale(0.1 -0.1)">
       <use xlink:href="#DejaVuSans-30"/>
       <use xlink:href="#DejaVuSans-2e" x="63.623047"/>
       <use xlink:href="#DejaVuSans-30" x="95.410156"/>
       <use xlink:href="#DejaVuSans-36" x="159.033203"/>
      </g>
     </g>
    </g>
    <g id="text_15">
     <!-- Value -->
     <g transform="translate(14.798438 144.769375) rotate(-90) scale(0.1 -0.1)">
      <defs>
       <path id="DejaVuSans-56" d="M 1831 0 
L 50 4666 
L 709 4666 
L 2188 738 
L 3669 4666 
L 4325 4666 
L 2547 0 
L 1831 0 
z
" transform="scale(0.015625)"/>
       <path id="DejaVuSans-6c" d="M 603 4863 
L 1178 4863 
L 1178 0 
L 603 0 
L 603 4863 
z
" transform="scale(0.015625)"/>
      </defs>
      <use xlink:href="#DejaVuSans-56"/>
      <use xlink:href="#DejaVuSans-61" x="60.658203"/>
      <use xlink:href="#DejaVuSans-6c" x="121.9375"/>
      <use xlink:href="#DejaVuSans-75" x="149.720703"/>
      <use xlink:href="#DejaVuSans-65" x="213.099609"/>
     </g>
    </g>
   </g>
   <g id="line2d_27">
    <path d="M 65.361932 32.201761 
L 65.666295 173.359114 
L 65.970659 221.134617 
L 66.275023 228.642896 
L 66.579386 229.731682 
L 66.88375 226.580849 
L 67.492477 229.536792 
L 67.796841 229.601098 
L 68.101205 228.127258 
L 68.405568 228.525563 
L 68.709932 229.564507 
L 69.014295 228.308016 
L 69.318659 228.798818 
L 69.623023 228.285535 
L 69.927386 228.137131 
L 70.23175 228.888296 
L 70.536114 228.469519 
L 70.840477 229.108514 
L 71.144841 228.557198 
L 71.449205 228.89952 
L 71.753568 227.721345 
L 72.362295 228.112571 
L 72.666659 222.95158 
L 72.971023 222.304396 
L 73.275386 227.957713 
L 73.57975 229.231457 
L 73.884114 227.541211 
L 74.188477 228.218087 
L 74.797205 228.677599 
L 75.101568 228.08838 
L 75.405932 228.669268 
L 75.710295 229.557392 
L 76.014659 228.288602 
L 76.319023 228.695728 
L 76.623386 228.7838 
L 76.92775 228.418768 
L 77.232114 228.956375 
L 77.840841 227.787969 
L 78.145205 229.142331 
L 78.449568 229.602574 
L 78.753932 227.723345 
L 79.058295 228.661452 
L 79.362659 228.82178 
L 79.971386 227.551108 
L 80.27575 226.890489 
L 80.580114 228.744158 
L 80.884477 228.861891 
L 81.188841 227.372543 
L 81.493205 228.886518 
L 81.797568 228.155362 
L 82.101932 228.68028 
L 82.406295 228.385836 
L 82.710659 227.313525 
L 83.015023 228.703603 
L 83.319386 227.678216 
L 83.62375 227.25918 
L 83.928114 227.072218 
L 84.232477 229.874489 
L 84.536841 228.739595 
L 84.841205 229.657817 
L 85.449932 228.675001 
L 85.754295 228.390127 
L 86.058659 227.429569 
L 86.363023 227.480222 
L 86.667386 226.503984 
L 87.276114 228.797063 
L 87.580477 227.548218 
L 87.884841 227.215854 
L 88.189205 227.677785 
L 88.493568 227.824408 
L 88.797932 227.661772 
L 89.102295 227.168176 
L 89.406659 229.441237 
L 89.711023 227.822898 
L 90.015386 228.241046 
L 90.31975 227.886071 
L 91.232841 227.780711 
L 91.537205 227.272746 
L 91.841568 226.314703 
L 92.145932 228.963817 
L 92.450295 227.123253 
L 92.754659 226.177994 
L 93.059023 227.534436 
L 93.363386 228.042973 
L 93.66775 227.92473 
L 93.972114 228.65408 
L 94.276477 228.611424 
L 94.580841 227.702557 
L 94.885205 227.791914 
L 95.189568 228.678135 
L 95.493932 227.500222 
L 96.407023 227.867532 
L 96.711386 227.592859 
L 97.01575 227.605878 
L 97.320114 226.660217 
L 97.624477 226.93619 
L 97.928841 228.940045 
L 98.233205 228.340915 
L 98.537568 229.060424 
L 98.841932 228.590961 
L 99.146295 229.133982 
L 99.450659 228.675717 
L 99.755023 226.904528 
L 100.36375 227.860347 
L 100.668114 228.314106 
L 100.972477 228.095314 
L 101.276841 228.721244 
L 101.885568 228.058078 
L 102.189932 228.86191 
L 102.494295 227.963659 
L 102.798659 228.109194 
L 103.103023 228.916717 
L 103.407386 228.506537 
L 103.71175 229.036468 
L 104.016114 227.939984 
L 104.320477 228.237569 
L 104.624841 228.256062 
L 104.929205 228.840077 
L 105.537932 228.921151 
L 105.842295 227.621453 
L 106.146659 228.345889 
L 106.451023 226.789129 
L 106.755386 227.676943 
L 107.05975 227.671816 
L 107.364114 227.250828 
L 107.972841 228.465427 
L 108.277205 227.604597 
L 108.581568 228.950813 
L 108.885932 228.109356 
L 109.190295 228.439395 
L 109.494659 228.195684 
L 109.799023 227.633637 
L 110.103386 228.694408 
L 110.40775 227.84959 
L 110.712114 228.387963 
L 111.016477 227.109089 
L 111.320841 227.868002 
L 111.625205 227.534281 
L 111.929568 228.223841 
L 112.842659 228.919025 
L 113.147023 228.864572 
L 113.451386 229.010263 
L 113.75575 227.691086 
L 114.060114 228.46345 
L 114.364477 227.902968 
L 114.668841 226.826593 
L 115.277568 228.334327 
L 115.581932 228.77047 
L 115.886295 228.008186 
L 116.190659 227.774301 
L 116.495023 228.199639 
L 116.799386 227.165522 
L 117.10375 228.980489 
L 117.408114 229.127482 
L 117.712477 227.3018 
L 118.016841 228.768758 
L 118.321205 227.940842 
L 118.625568 228.30808 
L 119.234295 227.71263 
L 119.538659 229.250461 
L 119.843023 229.259021 
L 120.45175 226.987478 
L 120.756114 228.089151 
L 121.060477 227.60413 
L 121.364841 228.006568 
L 121.669205 227.453696 
L 121.973568 227.575954 
L 122.582295 228.518955 
L 122.886659 229.465711 
L 123.79975 227.715816 
L 124.104114 227.843156 
L 124.408477 228.394033 
L 124.712841 228.168664 
L 125.017205 228.668896 
L 125.321568 228.348446 
L 125.625932 227.146704 
L 125.930295 227.243892 
L 126.234659 228.253515 
L 126.539023 227.396729 
L 126.843386 227.907724 
L 127.14775 227.341429 
L 127.452114 228.383077 
L 127.756477 228.595584 
L 128.060841 227.665304 
L 128.365205 228.351573 
L 128.669568 228.690456 
L 129.278295 227.884811 
L 129.582659 228.073147 
L 130.191386 228.990361 
L 130.49575 228.546244 
L 130.800114 227.534639 
L 131.104477 227.626168 
L 131.408841 227.536041 
L 132.017568 226.688098 
L 132.321932 228.088388 
L 132.626295 227.303718 
L 132.930659 227.765777 
L 133.235023 227.21946 
L 133.539386 227.272014 
L 133.84375 228.46041 
L 134.148114 227.926529 
L 134.452477 228.568456 
L 134.756841 228.405844 
L 135.061205 229.59949 
L 135.365568 228.835147 
L 135.669932 229.205112 
L 136.278659 229.278559 
L 136.583023 228.509154 
L 136.887386 228.202212 
L 137.19175 228.579381 
L 137.496114 229.633237 
L 137.800477 229.18871 
L 138.104841 227.983302 
L 138.409205 228.14205 
L 138.713568 227.146974 
L 139.017932 227.035504 
L 139.626659 228.252728 
L 139.931023 227.643137 
L 140.53975 228.571489 
L 141.148477 227.610217 
L 141.452841 228.185616 
L 141.757205 228.07288 
L 142.061568 228.318919 
L 142.365932 228.771759 
L 142.670295 229.013445 
L 142.974659 228.944513 
L 143.279023 226.905417 
L 143.583386 227.590766 
L 144.192114 227.708246 
L 144.496477 227.13222 
L 144.800841 228.306044 
L 145.409568 227.54485 
L 145.713932 227.51948 
L 146.018295 228.537669 
L 146.322659 227.016266 
L 146.627023 228.039146 
L 146.931386 227.731822 
L 147.23575 227.583464 
L 147.540114 228.598189 
L 147.844477 228.552843 
L 148.148841 225.874914 
L 148.757568 227.74041 
L 149.061932 226.146973 
L 149.366295 227.81304 
L 149.670659 227.147172 
L 150.279386 227.790835 
L 150.58375 227.511452 
L 150.888114 228.218092 
L 151.192477 227.762854 
L 151.496841 228.291824 
L 151.801205 228.486015 
L 152.105568 228.471635 
L 152.409932 228.877932 
L 152.714295 227.602428 
L 153.323023 228.447976 
L 153.627386 228.306378 
L 153.93175 228.379951 
L 154.236114 227.545395 
L 154.540477 228.074215 
L 154.844841 227.855258 
L 155.149205 227.968657 
L 155.453568 227.650559 
L 155.757932 228.107816 
L 156.062295 227.464487 
L 156.366659 227.810062 
L 156.671023 226.340509 
L 156.975386 227.685658 
L 157.27975 227.476989 
L 157.888477 228.32186 
L 158.192841 227.373446 
L 158.497205 228.186828 
L 158.801568 228.053704 
L 159.105932 227.598348 
L 159.410295 226.929743 
L 159.714659 229.355018 
L 160.019023 227.927612 
L 160.323386 227.483402 
L 160.62775 228.231612 
L 160.932114 227.401378 
L 161.236477 227.006556 
L 161.845205 227.485865 
L 162.149568 228.633294 
L 162.453932 228.218156 
L 162.758295 228.481362 
L 163.062659 229.127378 
L 163.367023 229.207018 
L 163.671386 228.369611 
L 163.97575 228.066986 
L 164.584477 227.920293 
L 164.888841 227.30707 
L 165.497568 227.616764 
L 165.801932 228.365192 
L 166.106295 227.946506 
L 166.410659 228.002186 
L 166.715023 228.986551 
L 167.019386 228.116324 
L 167.32375 228.291019 
L 167.932477 228.102808 
L 168.236841 227.721187 
L 168.845568 228.739275 
L 169.149932 226.369293 
L 169.758659 229.396852 
L 170.367386 228.631541 
L 170.67175 227.755121 
L 170.976114 227.665847 
L 171.280477 227.997265 
L 171.584841 228.790918 
L 171.889205 228.346054 
L 172.193568 228.67581 
L 172.497932 227.034426 
L 172.802295 226.974397 
L 173.106659 228.670665 
L 173.411023 229.662847 
L 173.715386 228.580347 
L 174.01975 228.269721 
L 174.324114 228.669552 
L 175.237205 226.831121 
L 175.541568 227.933269 
L 175.845932 227.627435 
L 176.150295 227.750133 
L 176.454659 228.60153 
L 176.759023 227.469288 
L 177.063386 227.60598 
L 177.672114 226.947552 
L 177.976477 227.743479 
L 178.280841 227.959344 
L 178.585205 226.875061 
L 179.193932 228.671794 
L 179.498295 228.120902 
L 179.802659 227.301513 
L 180.411386 228.209887 
L 180.71575 227.797086 
L 181.020114 226.575757 
L 181.324477 227.90692 
L 181.628841 227.006938 
L 181.933205 228.344874 
L 182.237568 227.613373 
L 182.541932 228.569513 
L 182.846295 228.126386 
L 183.150659 227.324195 
L 183.455023 227.023941 
L 183.759386 227.185064 
L 184.06375 228.182983 
L 184.368114 227.675212 
L 184.672477 228.290828 
L 184.976841 227.120627 
L 185.281205 226.959775 
L 185.585568 226.992719 
L 185.889932 229.014886 
L 186.498659 228.193093 
L 186.803023 227.651609 
L 187.107386 227.495704 
L 187.41175 228.587947 
L 187.716114 228.179004 
L 188.324841 227.770198 
L 188.629205 227.981276 
L 188.933568 227.390365 
L 189.237932 227.57754 
L 189.542295 227.15017 
L 189.846659 227.785062 
L 190.151023 227.077123 
L 190.455386 227.973182 
L 190.75975 227.160595 
L 191.064114 226.700255 
L 191.977205 228.331369 
L 192.281568 227.400439 
L 192.585932 228.131274 
L 192.890295 227.800353 
L 193.194659 228.685157 
L 193.803386 227.565298 
L 194.10775 227.523469 
L 194.412114 228.354254 
L 194.716477 227.729553 
L 195.020841 229.204302 
L 195.629568 228.321516 
L 195.933932 228.248885 
L 196.238295 226.576684 
L 196.542659 228.140439 
L 196.847023 227.933163 
L 197.151386 227.584789 
L 197.45575 227.720448 
L 197.760114 228.000672 
L 198.064477 228.717936 
L 198.368841 228.345072 
L 198.673205 228.311684 
L 198.977568 227.489094 
L 199.281932 228.057337 
L 199.890659 226.781102 
L 200.195023 227.621535 
L 200.499386 227.987907 
L 200.80375 228.097014 
L 201.108114 227.816752 
L 201.412477 228.528889 
L 201.716841 228.842897 
L 202.021205 227.142921 
L 202.325568 228.545116 
L 202.629932 228.445544 
L 202.934295 228.516081 
L 203.238659 227.668862 
L 203.543023 227.524521 
L 203.847386 228.590968 
L 204.15175 227.473186 
L 204.456114 227.860912 
L 204.760477 227.512731 
L 205.064841 226.741835 
L 205.369205 229.128873 
L 205.673568 228.177064 
L 205.977932 228.234599 
L 206.282295 227.345652 
L 206.586659 228.566712 
L 206.891023 227.770059 
L 207.195386 227.650292 
L 207.49975 227.178788 
L 207.804114 227.447442 
L 208.108477 228.697429 
L 208.412841 229.29538 
L 208.717205 227.570256 
L 209.021568 227.911462 
L 209.325932 228.044857 
L 209.630295 226.782963 
L 210.239023 228.612631 
L 210.543386 227.903299 
L 210.84775 228.461934 
L 211.152114 229.463059 
L 211.456477 228.765704 
L 211.760841 229.478762 
L 212.065205 228.0069 
L 212.369568 228.543392 
L 212.673932 228.537203 
L 212.978295 228.647346 
L 213.282659 228.623982 
L 213.891386 227.001245 
L 214.19575 228.10972 
L 214.500114 228.46137 
L 214.804477 227.196375 
L 215.108841 227.741412 
L 215.413205 227.730121 
L 215.717568 227.879784 
L 216.021932 228.938618 
L 216.326295 228.818122 
L 216.630659 227.601218 
L 216.935023 229.44039 
L 217.239386 226.856542 
L 217.54375 227.296083 
L 217.848114 227.207944 
L 218.152477 227.672965 
L 218.456841 228.437502 
L 218.761205 228.3151 
L 219.065568 228.456345 
L 219.369932 227.79554 
L 219.674295 228.565571 
L 219.978659 228.230032 
L 220.283023 228.308665 
L 220.587386 227.792598 
L 220.89175 227.59305 
L 221.196114 227.709339 
L 221.500477 228.231476 
L 221.804841 228.133338 
L 222.109205 228.693004 
L 222.413568 229.508291 
L 222.717932 228.287081 
L 223.022295 228.514269 
L 223.326659 229.096048 
L 223.631023 229.393497 
L 223.935386 227.65567 
L 224.23975 227.642109 
L 224.544114 228.72638 
L 224.848477 228.975395 
L 225.152841 227.941892 
L 225.457205 228.21964 
L 225.761568 228.301335 
L 226.065932 227.637644 
L 226.370295 227.796825 
L 226.979023 226.99581 
L 227.58775 228.694569 
L 228.500841 227.732461 
L 228.805205 228.467426 
L 229.109568 228.596877 
L 229.413932 227.220325 
L 229.718295 227.279163 
L 230.022659 227.792809 
L 230.327023 227.756195 
L 230.631386 228.166771 
L 230.93575 227.925383 
L 231.240114 229.172257 
L 231.544477 228.184918 
L 231.848841 228.479175 
L 232.153205 227.051093 
L 232.457568 227.389871 
L 233.370659 227.800057 
L 233.675023 228.821178 
L 233.979386 227.92388 
L 234.28375 228.063253 
L 234.892477 227.393277 
L 235.196841 226.799161 
L 235.501205 228.655959 
L 235.805568 228.52395 
L 236.109932 226.945346 
L 236.414295 228.948441 
L 236.718659 228.427803 
L 237.023023 228.330579 
L 237.327386 227.410319 
L 237.63175 228.837234 
L 237.936114 228.920784 
L 238.240477 228.228814 
L 238.544841 227.860398 
L 238.849205 227.975611 
L 239.153568 227.92124 
L 239.762295 228.69836 
L 240.066659 227.210499 
L 240.371023 227.191373 
L 240.97975 229.473696 
L 241.284114 229.065878 
L 241.588477 228.443392 
L 241.892841 228.805483 
L 242.197205 228.226098 
L 242.501568 226.868544 
L 242.805932 226.75833 
L 243.110295 229.062108 
L 243.414659 227.719388 
L 243.719023 228.121529 
L 244.023386 227.796283 
L 244.32775 227.71181 
L 244.632114 226.947919 
L 244.936477 227.524539 
L 245.545205 228.246002 
L 245.849568 226.874256 
L 246.762659 228.894947 
L 247.067023 228.614828 
L 247.371386 228.756394 
L 248.284477 227.309995 
L 248.588841 227.790356 
L 248.893205 227.873005 
L 249.197568 228.278008 
L 249.501932 228.920256 
L 249.806295 227.434571 
L 250.110659 227.948756 
L 250.415023 226.771967 
L 250.719386 226.548022 
L 251.02375 227.174239 
L 251.328114 228.49809 
L 251.632477 227.387904 
L 251.936841 228.106768 
L 252.241205 227.604345 
L 252.545568 228.855385 
L 252.849932 228.719367 
L 253.154295 227.327497 
L 253.458659 227.037069 
L 253.763023 226.450684 
L 254.37175 229.175609 
L 254.676114 228.059954 
L 254.980477 227.965747 
L 255.284841 228.365244 
L 255.589205 228.29413 
L 255.893568 227.764195 
L 256.197932 228.612163 
L 256.806659 227.199653 
L 257.111023 228.803951 
L 257.415386 228.156358 
L 257.71975 228.652179 
L 258.024114 228.398348 
L 258.328477 228.426386 
L 258.632841 227.802177 
L 258.937205 226.554708 
L 259.241568 228.161895 
L 259.545932 227.416697 
L 259.850295 227.727164 
L 260.154659 229.242757 
L 260.459023 228.111615 
L 260.763386 228.20585 
L 261.06775 228.850378 
L 261.372114 228.775611 
L 261.676477 228.078203 
L 262.285205 228.710881 
L 262.589568 227.927193 
L 262.893932 228.731646 
L 263.198295 228.322037 
L 263.502659 228.672888 
L 263.807023 227.132149 
L 264.41575 227.640944 
L 265.024477 227.286207 
L 265.328841 227.410108 
L 265.937568 228.403007 
L 266.241932 228.79118 
L 266.546295 227.414729 
L 266.850659 227.657899 
L 267.155023 228.850824 
L 267.76375 227.071258 
L 268.068114 228.19236 
L 268.372477 228.873182 
L 268.676841 229.181267 
L 268.981205 228.400259 
L 269.285568 227.928025 
L 269.589932 228.794222 
L 269.894295 227.530321 
L 270.198659 228.748628 
L 270.503023 226.942836 
L 270.807386 226.514128 
L 271.11175 226.665417 
L 271.416114 228.263334 
L 271.720477 228.001072 
L 272.024841 228.637793 
L 272.329205 227.618202 
L 272.937932 229.106877 
L 273.242295 228.793223 
L 273.546659 228.122872 
L 273.851023 227.908971 
L 274.45975 228.370761 
L 275.068477 226.568906 
L 275.372841 228.0236 
L 275.677205 228.835071 
L 275.981568 228.228543 
L 276.285932 228.267293 
L 276.590295 227.857271 
L 276.894659 228.238864 
L 277.199023 227.511143 
L 277.503386 228.115471 
L 277.80775 227.891908 
L 278.112114 227.233904 
L 278.720841 228.839154 
L 279.025205 227.588911 
L 279.329568 227.631299 
L 279.633932 226.908957 
L 280.242659 228.288292 
L 280.547023 226.993038 
L 280.851386 227.932141 
L 281.460114 228.529581 
L 282.068841 227.672436 
L 282.373205 229.062638 
L 282.677568 228.626896 
L 282.981932 227.665563 
L 283.286295 229.32434 
L 283.590659 227.513787 
L 283.895023 228.744226 
L 284.199386 228.676213 
L 284.50375 228.407903 
L 284.808114 227.966342 
L 285.112477 227.721006 
L 285.416841 228.343828 
L 285.721205 228.388828 
L 286.025568 227.80458 
L 286.329932 228.439344 
L 286.634295 228.435635 
L 286.938659 228.165134 
L 287.243023 228.651232 
L 287.547386 227.506714 
L 287.85175 228.32603 
L 288.460477 226.550042 
L 288.764841 228.425208 
L 289.069205 227.218636 
L 289.373568 227.379412 
L 289.677932 226.703528 
L 289.982295 227.613738 
L 290.286659 226.804911 
L 290.591023 227.15125 
L 290.895386 226.945662 
L 291.504114 228.007383 
L 291.808477 227.440744 
L 292.112841 226.151592 
L 292.417205 227.215203 
L 293.025932 228.342891 
L 293.330295 228.792042 
L 293.634659 228.342725 
L 293.939023 227.10461 
L 294.243386 228.479766 
L 294.54775 227.759282 
L 294.852114 229.181075 
L 295.460841 228.027091 
L 295.765205 227.133418 
L 296.069568 228.104062 
L 296.373932 228.133202 
L 296.678295 227.828247 
L 296.982659 228.882704 
L 297.287023 228.704816 
L 297.89575 226.757877 
L 298.200114 226.856128 
L 298.504477 227.906568 
L 298.808841 228.324696 
L 299.113205 227.490326 
L 299.417568 228.07367 
L 299.721932 228.16369 
L 300.026295 227.196448 
L 300.330659 228.20357 
L 300.635023 228.376402 
L 300.939386 229.219975 
L 301.24375 228.106406 
L 301.548114 227.649518 
L 301.852477 227.566721 
L 302.461205 228.293921 
L 302.765568 227.296896 
L 303.374295 228.019392 
L 303.678659 227.737058 
L 303.983023 228.159365 
L 304.287386 227.739553 
L 304.59175 227.657516 
L 304.896114 228.215109 
L 305.504841 227.585492 
L 305.809205 228.511082 
L 306.113568 228.090207 
L 306.417932 228.053837 
L 306.722295 229.210459 
L 307.026659 228.299202 
L 307.331023 227.902824 
L 307.635386 228.568153 
L 308.244114 227.430887 
L 308.548477 227.416049 
L 309.157205 228.26578 
L 309.461568 227.381767 
L 309.765932 228.022139 
L 310.070295 229.204297 
L 310.374659 229.037869 
L 310.679023 228.438332 
L 310.983386 227.407814 
L 311.28775 228.332543 
L 311.592114 226.406605 
L 311.896477 226.514456 
L 312.200841 227.288927 
L 312.505205 227.287443 
L 312.809568 226.695154 
L 313.113932 226.580415 
L 313.418295 228.47647 
L 313.722659 227.241529 
L 314.027023 227.51014 
L 314.331386 227.246035 
L 314.940114 227.884238 
L 315.244477 228.50908 
L 315.548841 228.639861 
L 315.853205 227.903913 
L 316.157568 228.559231 
L 316.461932 227.883085 
L 316.766295 228.226493 
L 317.070659 226.358466 
L 317.375023 227.212799 
L 317.679386 229.591063 
L 317.98375 228.125494 
L 318.288114 229.151994 
L 318.592477 227.70117 
L 318.896841 226.874864 
L 319.201205 227.104901 
L 319.505568 227.608528 
L 319.809932 228.954643 
L 320.114295 228.561039 
L 320.418659 228.712059 
L 320.723023 227.901988 
L 321.027386 228.942702 
L 321.33175 228.460472 
L 321.636114 227.080681 
L 321.940477 229.09581 
L 322.549205 226.952487 
L 322.853568 227.06673 
L 323.157932 227.791411 
L 323.462295 227.407788 
L 323.766659 228.328566 
L 324.071023 227.908984 
L 324.375386 227.977157 
L 324.67975 227.47464 
L 324.984114 227.444546 
L 325.288477 227.105857 
L 325.592841 227.946453 
L 326.201568 226.974055 
L 326.505932 227.439526 
L 326.810295 226.894873 
L 327.114659 228.337926 
L 327.419023 227.974644 
L 327.723386 227.879859 
L 328.02775 228.782207 
L 328.332114 227.08888 
L 328.636477 227.583526 
L 328.940841 228.813613 
L 329.245205 227.29197 
L 329.549568 228.487744 
L 329.853932 228.15305 
L 330.158295 227.100853 
L 330.462659 226.841128 
L 330.767023 228.356704 
L 331.071386 227.307241 
L 331.37575 228.923071 
L 331.680114 228.792331 
L 331.984477 228.152757 
L 332.593205 227.712391 
L 332.897568 229.300958 
L 333.201932 229.718442 
L 333.506295 227.661732 
L 333.810659 228.783942 
L 334.115023 228.705059 
L 334.419386 228.002684 
L 334.72375 227.954335 
L 335.028114 227.579149 
L 335.332477 228.504321 
L 335.636841 227.840573 
L 335.941205 227.756129 
L 336.245568 229.26245 
L 336.854295 228.015374 
L 337.158659 228.212455 
L 337.463023 229.183696 
L 337.767386 228.775392 
L 338.07175 227.315904 
L 338.376114 227.376322 
L 338.680477 227.704574 
L 338.984841 226.895653 
L 339.289205 227.802599 
L 339.897932 227.200235 
L 340.202295 228.772075 
L 340.811023 227.147476 
L 341.115386 227.784195 
L 341.41975 227.651378 
L 341.724114 227.751291 
L 342.332841 227.448951 
L 342.637205 228.345376 
L 342.941568 227.288739 
L 343.550295 228.279166 
L 343.854659 228.22221 
L 344.159023 228.446396 
L 344.463386 227.856301 
L 344.76775 227.822233 
L 345.376477 226.83896 
L 345.680841 227.971728 
L 345.985205 227.082815 
L 346.289568 227.362178 
L 346.593932 229.238993 
L 346.898295 227.999487 
L 347.202659 228.117641 
L 347.507023 227.101514 
L 347.811386 228.484148 
L 348.11575 228.706924 
L 348.420114 229.106488 
L 348.724477 228.486221 
L 349.028841 229.539279 
L 349.333205 228.394995 
L 349.941932 229.413106 
L 350.550659 228.038977 
L 350.855023 228.847204 
L 351.159386 228.256536 
L 351.46375 228.642168 
L 351.768114 228.765153 
L 352.072477 228.246275 
L 352.376841 228.120465 
L 352.681205 228.387074 
L 352.985568 227.959358 
L 353.289932 228.406809 
L 353.594295 228.112867 
L 353.898659 228.286092 
L 354.203023 228.250372 
L 354.507386 228.535237 
L 354.81175 227.503597 
L 355.116114 228.058222 
L 355.724841 227.356201 
L 356.029205 227.838137 
L 356.333568 227.907219 
L 356.637932 227.773403 
L 356.942295 227.49041 
L 357.246659 228.128465 
L 357.551023 227.622437 
L 357.855386 226.900066 
L 358.15975 227.051838 
L 358.464114 227.435907 
L 358.768477 228.789395 
L 359.072841 228.388643 
L 359.377205 228.209382 
L 359.681568 228.225979 
L 359.985932 227.862914 
L 360.290295 227.998784 
L 360.594659 226.556379 
L 360.899023 227.096048 
L 361.203386 228.392318 
L 361.50775 227.08285 
L 362.420841 228.112713 
L 362.725205 227.717538 
L 363.029568 228.252914 
L 363.333932 228.035789 
L 363.638295 228.078912 
L 363.942659 226.302854 
L 364.247023 227.829367 
L 364.551386 227.969053 
L 364.85575 227.777785 
L 365.160114 227.293402 
L 365.464477 227.667959 
L 365.768841 228.685862 
L 366.073205 227.988424 
L 366.377568 228.951609 
L 366.986295 229.446826 
L 367.290659 228.111694 
L 367.595023 228.40966 
L 367.899386 227.796364 
L 368.20375 228.225008 
L 368.812477 227.668873 
L 369.116841 227.031933 
L 369.725568 228.338911 
L 369.725568 228.338911 
" clip-path="url(#pf288c8304f)" style="fill: none; stroke: #0000ff; stroke-width: 2; stroke-linecap: square"/>
   </g>
   <g id="line2d_28">
    <path d="M 65.361932 32.201761 
L 65.666295 173.359114 
L 65.970659 221.134617 
L 66.275023 228.642896 
L 66.579386 229.731682 
L 66.88375 226.580849 
L 67.492477 229.536792 
L 67.796841 229.601098 
L 68.101205 228.127258 
L 68.405568 228.525563 
L 68.709932 229.564507 
L 69.014295 228.308016 
L 69.318659 228.798818 
L 69.623023 228.285535 
L 69.927386 228.137131 
L 70.23175 228.888296 
L 70.536114 228.469519 
L 70.840477 229.108514 
L 71.144841 228.557198 
L 71.449205 228.89952 
L 71.753568 227.721345 
L 72.362295 228.112571 
L 72.666659 222.95158 
L 72.971023 222.304396 
L 73.275386 227.957713 
L 73.57975 229.231457 
L 73.884114 227.541211 
L 74.188477 228.218087 
L 74.797205 228.677599 
L 75.101568 228.08838 
L 75.405932 228.669268 
L 75.710295 229.557392 
L 76.014659 228.288602 
L 76.319023 228.695728 
L 76.623386 228.7838 
L 76.92775 228.418768 
L 77.232114 228.956375 
L 77.840841 227.787969 
L 78.145205 229.142331 
L 78.449568 229.602574 
L 78.753932 227.723345 
L 79.058295 228.661452 
L 79.362659 228.82178 
L 79.971386 227.551108 
L 80.27575 226.890489 
L 80.580114 228.744158 
L 80.884477 228.861891 
L 81.188841 227.372543 
L 81.493205 228.886518 
L 81.797568 228.155362 
L 82.101932 228.68028 
L 82.406295 228.385836 
L 82.710659 227.313525 
L 83.015023 228.703603 
L 83.319386 227.678216 
L 83.62375 227.25918 
L 83.928114 227.072218 
L 84.232477 229.874489 
L 84.536841 228.739595 
L 84.841205 229.657817 
L 85.449932 228.675001 
L 85.754295 228.390127 
L 86.058659 227.429569 
L 86.363023 227.480222 
L 86.667386 226.503984 
L 87.276114 228.797063 
L 87.580477 227.548218 
L 87.884841 227.215854 
L 88.189205 227.677785 
L 88.493568 227.824408 
L 88.797932 227.661772 
L 89.102295 227.168176 
L 89.406659 229.441237 
L 89.711023 227.822898 
L 90.015386 228.241046 
L 90.31975 227.886071 
L 91.232841 227.780711 
L 91.537205 227.272746 
L 91.841568 226.314703 
L 92.145932 228.963817 
L 92.450295 227.123253 
L 92.754659 226.177994 
L 93.059023 227.534436 
L 93.363386 228.042973 
L 93.66775 227.92473 
L 93.972114 228.65408 
L 94.276477 228.611424 
L 94.580841 227.702557 
L 94.885205 227.791914 
L 95.189568 228.678135 
L 95.493932 227.500222 
L 96.407023 227.867532 
L 96.711386 227.592859 
L 97.01575 227.605878 
L 97.320114 226.660217 
L 97.624477 226.93619 
L 97.928841 228.940045 
L 98.233205 228.340915 
L 98.537568 229.060424 
L 98.841932 228.590961 
L 99.146295 229.133982 
L 99.450659 228.675717 
L 99.755023 226.904528 
L 100.36375 227.860347 
L 100.668114 228.314106 
L 100.972477 228.095314 
L 101.276841 228.721244 
L 101.885568 228.058078 
L 102.189932 228.86191 
L 102.494295 227.963659 
L 102.798659 228.109194 
L 103.103023 228.916717 
L 103.407386 228.506537 
L 103.71175 229.036468 
L 104.016114 227.939984 
L 104.320477 228.237569 
L 104.624841 228.256062 
L 104.929205 228.840077 
L 105.537932 228.921151 
L 105.842295 227.621453 
L 106.146659 228.345889 
L 106.451023 226.789129 
L 106.755386 227.676943 
L 107.05975 227.671816 
L 107.364114 227.250828 
L 107.972841 228.465427 
L 108.277205 227.604597 
L 108.581568 228.950813 
L 108.885932 228.109356 
L 109.190295 228.439395 
L 109.494659 228.195684 
L 109.799023 227.633637 
L 110.103386 228.694408 
L 110.40775 227.84959 
L 110.712114 228.387963 
L 111.016477 227.109089 
L 111.320841 227.868002 
L 111.625205 227.534281 
L 111.929568 228.223841 
L 112.842659 228.919025 
L 113.147023 228.864572 
L 113.451386 229.010263 
L 113.75575 227.691086 
L 114.060114 228.46345 
L 114.364477 227.902968 
L 114.668841 226.826593 
L 115.277568 228.334327 
L 115.581932 228.77047 
L 115.886295 228.008186 
L 116.190659 227.774301 
L 116.495023 228.199639 
L 116.799386 227.165522 
L 117.10375 228.980489 
L 117.408114 229.127482 
L 117.712477 227.3018 
L 118.016841 228.768758 
L 118.321205 227.940842 
L 118.625568 228.30808 
L 119.234295 227.71263 
L 119.538659 229.250461 
L 119.843023 229.259021 
L 120.45175 226.987478 
L 120.756114 228.089151 
L 121.060477 227.60413 
L 121.364841 228.006568 
L 121.669205 227.453696 
L 121.973568 227.575954 
L 122.582295 228.518955 
L 122.886659 229.465711 
L 123.79975 227.715816 
L 124.104114 227.843156 
L 124.408477 228.394033 
L 124.712841 228.168664 
L 125.017205 228.668896 
L 125.321568 228.348446 
L 125.625932 227.146704 
L 125.930295 227.243892 
L 126.234659 228.253515 
L 126.539023 227.396729 
L 126.843386 227.907724 
L 127.14775 227.341429 
L 127.452114 228.383077 
L 127.756477 228.595584 
L 128.060841 227.665304 
L 128.365205 228.351573 
L 128.669568 228.690456 
L 129.278295 227.884811 
L 129.582659 228.073147 
L 130.191386 228.990361 
L 130.49575 228.546244 
L 130.800114 227.534639 
L 131.104477 227.626168 
L 131.408841 227.536041 
L 132.017568 226.688098 
L 132.321932 228.088388 
L 132.626295 227.303718 
L 132.930659 227.765777 
L 133.235023 227.21946 
L 133.539386 227.272014 
L 133.84375 228.46041 
L 134.148114 227.926529 
L 134.452477 228.568456 
L 134.756841 228.405844 
L 135.061205 229.59949 
L 135.365568 228.835147 
L 135.669932 229.205112 
L 136.278659 229.278559 
L 136.583023 228.509154 
L 136.887386 228.202212 
L 137.19175 228.579381 
L 137.496114 229.633237 
L 137.800477 229.18871 
L 138.104841 227.983302 
L 138.409205 228.14205 
L 138.713568 227.146974 
L 139.017932 227.035504 
L 139.626659 228.252728 
L 139.931023 227.643137 
L 140.53975 228.571489 
L 141.148477 227.610217 
L 141.452841 228.185616 
L 141.757205 228.07288 
L 142.061568 228.318919 
L 142.365932 228.771759 
L 142.670295 229.013445 
L 142.974659 228.944513 
L 143.279023 226.905417 
L 143.583386 227.590766 
L 144.192114 227.708246 
L 144.496477 227.13222 
L 144.800841 228.306044 
L 145.409568 227.54485 
L 145.713932 227.51948 
L 146.018295 228.537669 
L 146.322659 227.016266 
L 146.627023 228.039146 
L 146.931386 227.731822 
L 147.23575 227.583464 
L 147.540114 228.598189 
L 147.844477 228.552843 
L 148.148841 225.874914 
L 148.757568 227.74041 
L 149.061932 226.146973 
L 149.366295 227.81304 
L 149.670659 227.147172 
L 150.279386 227.790835 
L 150.58375 227.511452 
L 150.888114 228.218092 
L 151.192477 227.762854 
L 151.496841 228.291824 
L 151.801205 228.486015 
L 152.105568 228.471635 
L 152.409932 228.877932 
L 152.714295 227.602428 
L 153.323023 228.447976 
L 153.627386 228.306378 
L 153.93175 228.379951 
L 154.236114 227.545395 
L 154.540477 228.074215 
L 154.844841 227.855258 
L 155.149205 227.968657 
L 155.453568 227.650559 
L 155.757932 228.107816 
L 156.062295 227.464487 
L 156.366659 227.810062 
L 156.671023 226.340509 
L 156.975386 227.685658 
L 157.27975 227.476989 
L 157.888477 228.32186 
L 158.192841 227.373446 
L 158.497205 228.186828 
L 158.801568 228.053704 
L 159.105932 227.598348 
L 159.410295 226.929743 
L 159.714659 229.355018 
L 160.019023 227.927612 
L 160.323386 227.483402 
L 160.62775 228.231612 
L 160.932114 227.401378 
L 161.236477 227.006556 
L 161.845205 227.485865 
L 162.149568 228.633294 
L 162.453932 228.218156 
L 162.758295 228.481362 
L 163.062659 229.127378 
L 163.367023 229.207018 
L 163.671386 228.369611 
L 163.97575 228.066986 
L 164.584477 227.920293 
L 164.888841 227.30707 
L 165.497568 227.616764 
L 165.801932 228.365192 
L 166.106295 227.946506 
L 166.410659 228.002186 
L 166.715023 228.986551 
L 167.019386 228.116324 
L 167.32375 228.291019 
L 167.932477 228.102808 
L 168.236841 227.721187 
L 168.845568 228.739275 
L 169.149932 226.369293 
L 169.758659 229.396852 
L 170.367386 228.631541 
L 170.67175 227.755121 
L 170.976114 227.665847 
L 171.280477 227.997265 
L 171.584841 228.790918 
L 171.889205 228.346054 
L 172.193568 228.67581 
L 172.497932 227.034426 
L 172.802295 226.974397 
L 173.106659 228.670665 
L 173.411023 229.662847 
L 173.715386 228.580347 
L 174.01975 228.269721 
L 174.324114 228.669552 
L 175.237205 226.831121 
L 175.541568 227.933269 
L 175.845932 227.627435 
L 176.150295 227.750133 
L 176.454659 228.60153 
L 176.759023 227.469288 
L 177.063386 227.60598 
L 177.672114 226.947552 
L 177.976477 227.743479 
L 178.280841 227.959344 
L 178.585205 226.875061 
L 179.193932 228.671794 
L 179.498295 228.120902 
L 179.802659 227.301513 
L 180.411386 228.209887 
L 180.71575 227.797086 
L 181.020114 226.575757 
L 181.324477 227.90692 
L 181.628841 227.006938 
L 181.933205 228.344874 
L 182.237568 227.613373 
L 182.541932 228.569513 
L 182.846295 228.126386 
L 183.150659 227.324195 
L 183.455023 227.023941 
L 183.759386 227.185064 
L 184.06375 228.182983 
L 184.368114 227.675212 
L 184.672477 228.290828 
L 184.976841 227.120627 
L 185.281205 226.959775 
L 185.585568 226.992719 
L 185.889932 229.014886 
L 186.498659 228.193093 
L 186.803023 227.651609 
L 187.107386 227.495704 
L 187.41175 228.587947 
L 187.716114 228.179004 
L 188.324841 227.770198 
L 188.629205 227.981276 
L 188.933568 227.390365 
L 189.237932 227.57754 
L 189.542295 227.15017 
L 189.846659 227.785062 
L 190.151023 227.077123 
L 190.455386 227.973182 
L 190.75975 227.160595 
L 191.064114 226.700255 
L 191.977205 228.331369 
L 192.281568 227.400439 
L 192.585932 228.131274 
L 192.890295 227.800353 
L 193.194659 228.685157 
L 193.803386 227.565298 
L 194.10775 227.523469 
L 194.412114 228.354254 
L 194.716477 227.729553 
L 195.020841 229.204302 
L 195.629568 228.321516 
L 195.933932 228.248885 
L 196.238295 226.576684 
L 196.542659 228.140439 
L 196.847023 227.933163 
L 197.151386 227.584789 
L 197.45575 227.720448 
L 197.760114 228.000672 
L 198.064477 228.717936 
L 198.368841 228.345072 
L 198.673205 228.311684 
L 198.977568 227.489094 
L 199.281932 228.057337 
L 199.890659 226.781102 
L 200.195023 227.621535 
L 200.499386 227.987907 
L 200.80375 228.097014 
L 201.108114 227.816752 
L 201.412477 228.528889 
L 201.716841 228.842897 
L 202.021205 227.142921 
L 202.325568 228.545116 
L 202.629932 228.445544 
L 202.934295 228.516081 
L 203.238659 227.668862 
L 203.543023 227.524521 
L 203.847386 228.590968 
L 204.15175 227.473186 
L 204.456114 227.860912 
L 204.760477 227.512731 
L 205.064841 226.741835 
L 205.369205 229.128873 
L 205.673568 228.177064 
L 205.977932 228.234599 
L 206.282295 227.345652 
L 206.586659 228.566712 
L 206.891023 227.770059 
L 207.195386 227.650292 
L 207.49975 227.178788 
L 207.804114 227.447442 
L 208.108477 228.697429 
L 208.412841 229.29538 
L 208.717205 227.570256 
L 209.021568 227.911462 
L 209.325932 228.044857 
L 209.630295 226.782963 
L 210.239023 228.612631 
L 210.543386 227.903299 
L 210.84775 228.461934 
L 211.152114 229.463059 
L 211.456477 228.765704 
L 211.760841 229.478762 
L 212.065205 228.0069 
L 212.369568 228.543392 
L 212.673932 228.537203 
L 212.978295 228.647346 
L 213.282659 228.623982 
L 213.891386 227.001245 
L 214.19575 228.10972 
L 214.500114 228.46137 
L 214.804477 227.196375 
L 215.108841 227.741412 
L 215.413205 227.730121 
L 215.717568 227.879784 
L 216.021932 228.938618 
L 216.326295 228.818122 
L 216.630659 227.601218 
L 216.935023 229.44039 
L 217.239386 226.856542 
L 217.54375 227.296083 
L 217.848114 227.207944 
L 218.152477 227.672965 
L 218.456841 228.437502 
L 218.761205 228.3151 
L 219.065568 228.456345 
L 219.369932 227.79554 
L 219.674295 228.565571 
L 219.978659 228.230032 
L 220.283023 228.308665 
L 220.587386 227.792598 
L 220.89175 227.59305 
L 221.196114 227.709339 
L 221.500477 228.231476 
L 221.804841 228.133338 
L 222.109205 228.693004 
L 222.413568 229.508291 
L 222.717932 228.287081 
L 223.022295 228.514269 
L 223.326659 229.096048 
L 223.631023 229.393497 
L 223.935386 227.65567 
L 224.23975 227.642109 
L 224.544114 228.72638 
L 224.848477 228.975395 
L 225.152841 227.941892 
L 225.457205 228.21964 
L 225.761568 228.301335 
L 226.065932 227.637644 
L 226.370295 227.796825 
L 226.979023 226.99581 
L 227.58775 228.694569 
L 228.500841 227.732461 
L 228.805205 228.467426 
L 229.109568 228.596877 
L 229.413932 227.220325 
L 229.718295 227.279163 
L 230.022659 227.792809 
L 230.327023 227.756195 
L 230.631386 228.166771 
L 230.93575 227.925383 
L 231.240114 229.172257 
L 231.544477 228.184918 
L 231.848841 228.479175 
L 232.153205 227.051093 
L 232.457568 227.389871 
L 233.370659 227.800057 
L 233.675023 228.821178 
L 233.979386 227.92388 
L 234.28375 228.063253 
L 234.892477 227.393277 
L 235.196841 226.799161 
L 235.501205 228.655959 
L 235.805568 228.52395 
L 236.109932 226.945346 
L 236.414295 228.948441 
L 236.718659 228.427803 
L 237.023023 228.330579 
L 237.327386 227.410319 
L 237.63175 228.837234 
L 237.936114 228.920784 
L 238.240477 228.228814 
L 238.544841 227.860398 
L 238.849205 227.975611 
L 239.153568 227.92124 
L 239.762295 228.69836 
L 240.066659 227.210499 
L 240.371023 227.191373 
L 240.97975 229.473696 
L 241.284114 229.065878 
L 241.588477 228.443392 
L 241.892841 228.805483 
L 242.197205 228.226098 
L 242.501568 226.868544 
L 242.805932 226.75833 
L 243.110295 229.062108 
L 243.414659 227.719388 
L 243.719023 228.121529 
L 244.023386 227.796283 
L 244.32775 227.71181 
L 244.632114 226.947919 
L 244.936477 227.524539 
L 245.545205 228.246002 
L 245.849568 226.874256 
L 246.762659 228.894947 
L 247.067023 228.614828 
L 247.371386 228.756394 
L 248.284477 227.309995 
L 248.588841 227.790356 
L 248.893205 227.873005 
L 249.197568 228.278008 
L 249.501932 228.920256 
L 249.806295 227.434571 
L 250.110659 227.948756 
L 250.415023 226.771967 
L 250.719386 226.548022 
L 251.02375 227.174239 
L 251.328114 228.49809 
L 251.632477 227.387904 
L 251.936841 228.106768 
L 252.241205 227.604345 
L 252.545568 228.855385 
L 252.849932 228.719367 
L 253.154295 227.327497 
L 253.458659 227.037069 
L 253.763023 226.450684 
L 254.37175 229.175609 
L 254.676114 228.059954 
L 254.980477 227.965747 
L 255.284841 228.365244 
L 255.589205 228.29413 
L 255.893568 227.764195 
L 256.197932 228.612163 
L 256.806659 227.199653 
L 257.111023 228.803951 
L 257.415386 228.156358 
L 257.71975 228.652179 
L 258.024114 228.398348 
L 258.328477 228.426386 
L 258.632841 227.802177 
L 258.937205 226.554708 
L 259.241568 228.161895 
L 259.545932 227.416697 
L 259.850295 227.727164 
L 260.154659 229.242757 
L 260.459023 228.111615 
L 260.763386 228.20585 
L 261.06775 228.850378 
L 261.372114 228.775611 
L 261.676477 228.078203 
L 262.285205 228.710881 
L 262.589568 227.927193 
L 262.893932 228.731646 
L 263.198295 228.322037 
L 263.502659 228.672888 
L 263.807023 227.132149 
L 264.41575 227.640944 
L 265.024477 227.286207 
L 265.328841 227.410108 
L 265.937568 228.403007 
L 266.241932 228.79118 
L 266.546295 227.414729 
L 266.850659 227.657899 
L 267.155023 228.850824 
L 267.76375 227.071258 
L 268.068114 228.19236 
L 268.372477 228.873182 
L 268.676841 229.181267 
L 268.981205 228.400259 
L 269.285568 227.928025 
L 269.589932 228.794222 
L 269.894295 227.530321 
L 270.198659 228.748628 
L 270.503023 226.942836 
L 270.807386 226.514128 
L 271.11175 226.665417 
L 271.416114 228.263334 
L 271.720477 228.001072 
L 272.024841 228.637793 
L 272.329205 227.618202 
L 272.937932 229.106877 
L 273.242295 228.793223 
L 273.546659 228.122872 
L 273.851023 227.908971 
L 274.45975 228.370761 
L 275.068477 226.568906 
L 275.372841 228.0236 
L 275.677205 228.835071 
L 275.981568 228.228543 
L 276.285932 228.267293 
L 276.590295 227.857271 
L 276.894659 228.238864 
L 277.199023 227.511143 
L 277.503386 228.115471 
L 277.80775 227.891908 
L 278.112114 227.233904 
L 278.720841 228.839154 
L 279.025205 227.588911 
L 279.329568 227.631299 
L 279.633932 226.908957 
L 280.242659 228.288292 
L 280.547023 226.993038 
L 280.851386 227.932141 
L 281.460114 228.529581 
L 282.068841 227.672436 
L 282.373205 229.062638 
L 282.677568 228.626896 
L 282.981932 227.665563 
L 283.286295 229.32434 
L 283.590659 227.513787 
L 283.895023 228.744226 
L 284.199386 228.676213 
L 284.50375 228.407903 
L 284.808114 227.966342 
L 285.112477 227.721006 
L 285.416841 228.343828 
L 285.721205 228.388828 
L 286.025568 227.80458 
L 286.329932 228.439344 
L 286.634295 228.435635 
L 286.938659 228.165134 
L 287.243023 228.651232 
L 287.547386 227.506714 
L 287.85175 228.32603 
L 288.460477 226.550042 
L 288.764841 228.425208 
L 289.069205 227.218636 
L 289.373568 227.379412 
L 289.677932 226.703528 
L 289.982295 227.613738 
L 290.286659 226.804911 
L 290.591023 227.15125 
L 290.895386 226.945662 
L 291.504114 228.007383 
L 291.808477 227.440744 
L 292.112841 226.151592 
L 292.417205 227.215203 
L 293.025932 228.342891 
L 293.330295 228.792042 
L 293.634659 228.342725 
L 293.939023 227.10461 
L 294.243386 228.479766 
L 294.54775 227.759282 
L 294.852114 229.181075 
L 295.460841 228.027091 
L 295.765205 227.133418 
L 296.069568 228.104062 
L 296.373932 228.133202 
L 296.678295 227.828247 
L 296.982659 228.882704 
L 297.287023 228.704816 
L 297.89575 226.757877 
L 298.200114 226.856128 
L 298.504477 227.906568 
L 298.808841 228.324696 
L 299.113205 227.490326 
L 299.417568 228.07367 
L 299.721932 228.16369 
L 300.026295 227.196448 
L 300.330659 228.20357 
L 300.635023 228.376402 
L 300.939386 229.219975 
L 301.24375 228.106406 
L 301.548114 227.649518 
L 301.852477 227.566721 
L 302.461205 228.293921 
L 302.765568 227.296896 
L 303.374295 228.019392 
L 303.678659 227.737058 
L 303.983023 228.159365 
L 304.287386 227.739553 
L 304.59175 227.657516 
L 304.896114 228.215109 
L 305.504841 227.585492 
L 305.809205 228.511082 
L 306.113568 228.090207 
L 306.417932 228.053837 
L 306.722295 229.210459 
L 307.026659 228.299202 
L 307.331023 227.902824 
L 307.635386 228.568153 
L 308.244114 227.430887 
L 308.548477 227.416049 
L 309.157205 228.26578 
L 309.461568 227.381767 
L 309.765932 228.022139 
L 310.070295 229.204297 
L 310.374659 229.037869 
L 310.679023 228.438332 
L 310.983386 227.407814 
L 311.28775 228.332543 
L 311.592114 226.406605 
L 311.896477 226.514456 
L 312.200841 227.288927 
L 312.505205 227.287443 
L 312.809568 226.695154 
L 313.113932 226.580415 
L 313.418295 228.47647 
L 313.722659 227.241529 
L 314.027023 227.51014 
L 314.331386 227.246035 
L 314.940114 227.884238 
L 315.244477 228.50908 
L 315.548841 228.639861 
L 315.853205 227.903913 
L 316.157568 228.559231 
L 316.461932 227.883085 
L 316.766295 228.226493 
L 317.070659 226.358466 
L 317.375023 227.212799 
L 317.679386 229.591063 
L 317.98375 228.125494 
L 318.288114 229.151994 
L 318.592477 227.70117 
L 318.896841 226.874864 
L 319.201205 227.104901 
L 319.505568 227.608528 
L 319.809932 228.954643 
L 320.114295 228.561039 
L 320.418659 228.712059 
L 320.723023 227.901988 
L 321.027386 228.942702 
L 321.33175 228.460472 
L 321.636114 227.080681 
L 321.940477 229.09581 
L 322.549205 226.952487 
L 322.853568 227.06673 
L 323.157932 227.791411 
L 323.462295 227.407788 
L 323.766659 228.328566 
L 324.071023 227.908984 
L 324.375386 227.977157 
L 324.67975 227.47464 
L 324.984114 227.444546 
L 325.288477 227.105857 
L 325.592841 227.946453 
L 326.201568 226.974055 
L 326.505932 227.439526 
L 326.810295 226.894873 
L 327.114659 228.337926 
L 327.419023 227.974644 
L 327.723386 227.879859 
L 328.02775 228.782207 
L 328.332114 227.08888 
L 328.636477 227.583526 
L 328.940841 228.813613 
L 329.245205 227.29197 
L 329.549568 228.487744 
L 329.853932 228.15305 
L 330.158295 227.100853 
L 330.462659 226.841128 
L 330.767023 228.356704 
L 331.071386 227.307241 
L 331.37575 228.923071 
L 331.680114 228.792331 
L 331.984477 228.152757 
L 332.593205 227.712391 
L 332.897568 229.300958 
L 333.201932 229.718442 
L 333.506295 227.661732 
L 333.810659 228.783942 
L 334.115023 228.705059 
L 334.419386 228.002684 
L 334.72375 227.954335 
L 335.028114 227.579149 
L 335.332477 228.504321 
L 335.636841 227.840573 
L 335.941205 227.756129 
L 336.245568 229.26245 
L 336.854295 228.015374 
L 337.158659 228.212455 
L 337.463023 229.183696 
L 337.767386 228.775392 
L 338.07175 227.315904 
L 338.376114 227.376322 
L 338.680477 227.704574 
L 338.984841 226.895653 
L 339.289205 227.802599 
L 339.897932 227.200235 
L 340.202295 228.772075 
L 340.811023 227.147476 
L 341.115386 227.784195 
L 341.41975 227.651378 
L 341.724114 227.751291 
L 342.332841 227.448951 
L 342.637205 228.345376 
L 342.941568 227.288739 
L 343.550295 228.279166 
L 343.854659 228.22221 
L 344.159023 228.446396 
L 344.463386 227.856301 
L 344.76775 227.822233 
L 345.376477 226.83896 
L 345.680841 227.971728 
L 345.985205 227.082815 
L 346.289568 227.362178 
L 346.593932 229.238993 
L 346.898295 227.999487 
L 347.202659 228.117641 
L 347.507023 227.101514 
L 347.811386 228.484148 
L 348.11575 228.706924 
L 348.420114 229.106488 
L 348.724477 228.486221 
L 349.028841 229.539279 
L 349.333205 228.394995 
L 349.941932 229.413106 
L 350.550659 228.038977 
L 350.855023 228.847204 
L 351.159386 228.256536 
L 351.46375 228.642168 
L 351.768114 228.765153 
L 352.072477 228.246275 
L 352.376841 228.120465 
L 352.681205 228.387074 
L 352.985568 227.959358 
L 353.289932 228.406809 
L 353.594295 228.112867 
L 353.898659 228.286092 
L 354.203023 228.250372 
L 354.507386 228.535237 
L 354.81175 227.503597 
L 355.116114 228.058222 
L 355.724841 227.356201 
L 356.029205 227.838137 
L 356.333568 227.907219 
L 356.637932 227.773403 
L 356.942295 227.49041 
L 357.246659 228.128465 
L 357.551023 227.622437 
L 357.855386 226.900066 
L 358.15975 227.051838 
L 358.464114 227.435907 
L 358.768477 228.789395 
L 359.072841 228.388643 
L 359.377205 228.209382 
L 359.681568 228.225979 
L 359.985932 227.862914 
L 360.290295 227.998784 
L 360.594659 226.556379 
L 360.899023 227.096048 
L 361.203386 228.392318 
L 361.50775 227.08285 
L 362.420841 228.112713 
L 362.725205 227.717538 
L 363.029568 228.252914 
L 363.333932 228.035789 
L 363.638295 228.078912 
L 363.942659 226.302854 
L 364.247023 227.829367 
L 364.551386 227.969053 
L 364.85575 227.777785 
L 365.160114 227.293402 
L 365.464477 227.667959 
L 365.768841 228.685862 
L 366.073205 227.988424 
L 366.377568 228.951609 
L 366.986295 229.446826 
L 367.290659 228.111694 
L 367.595023 228.40966 
L 367.899386 227.796364 
L 368.20375 228.225008 
L 368.812477 227.668873 
L 369.116841 227.031933 
L 369.725568 228.338911 
L 369.725568 228.338911 
" clip-path="url(#pf288c8304f)" style="fill: none; stroke: #0000ff; stroke-width: 2; stroke-linecap: square"/>
   </g>
   <g id="patch_3">
    <path d="M 50.14375 239.758125 
L 50.14375 22.318125 
" style="fill: none; stroke: #000000; stroke-width: 0.8; stroke-linejoin: miter; stroke-linecap: square"/>
   </g>
   <g id="patch_4">
    <path d="M 384.94375 239.758125 
L 384.94375 22.318125 
" style="fill: none; stroke: #000000; stroke-width: 0.8; stroke-linejoin: miter; stroke-linecap: square"/>
   </g>
   <g id="patch_5">
    <path d="M 50.14375 239.758125 
L 384.94375 239.758125 
" style="fill: none; stroke: #000000; stroke-width: 0.8; stroke-linejoin: miter; stroke-linecap: square"/>
   </g>
   <g id="patch_6">
    <path d="M 50.14375 22.318125 
L 384.94375 22.318125 
" style="fill: none; stroke: #000000; stroke-width: 0.8; stroke-linejoin: miter; stroke-linecap: square"/>
   </g>
   <g id="text_16">
    <!-- Spacing Trace Plot -->
    <g transform="translate(162.635313 16.318125) scale(0.12 -0.12)">
     <defs>
      <path id="DejaVuSans-53" d="M 3425 4513 
L 3425 3897 
Q 3066 4069 2747 4153 
Q 2428 4238 2131 4238 
Q 1616 4238 1336 4038 
Q 1056 3838 1056 3469 
Q 1056 3159 1242 3001 
Q 1428 2844 1947 2747 
L 2328 2669 
Q 3034 2534 3370 2195 
Q 3706 1856 3706 1288 
Q 3706 609 3251 259 
Q 2797 -91 1919 -91 
Q 1588 -91 1214 -16 
Q 841 59 441 206 
L 441 856 
Q 825 641 1194 531 
Q 1563 422 1919 422 
Q 2459 422 2753 634 
Q 3047 847 3047 1241 
Q 3047 1584 2836 1778 
Q 2625 1972 2144 2069 
L 1759 2144 
Q 1053 2284 737 2584 
Q 422 2884 422 3419 
Q 422 4038 858 4394 
Q 1294 4750 2059 4750 
Q 2388 4750 2728 4690 
Q 3069 4631 3425 4513 
z
" transform="scale(0.015625)"/>
      <path id="DejaVuSans-70" d="M 1159 525 
L 1159 -1331 
L 581 -1331 
L 581 3500 
L 1159 3500 
L 1159 2969 
Q 1341 3281 1617 3432 
Q 1894 3584 2278 3584 
Q 2916 3584 3314 3078 
Q 3713 2572 3713 1747 
Q 3713 922 3314 415 
Q 2916 -91 2278 -91 
Q 1894 -91 1617 61 
Q 1341 213 1159 525 
z
M 3116 1747 
Q 3116 2381 2855 2742 
Q 2594 3103 2138 3103 
Q 1681 3103 1420 2742 
Q 1159 2381 1159 1747 
Q 1159 1113 1420 752 
Q 1681 391 2138 391 
Q 2594 391 2855 752 
Q 3116 1113 3116 1747 
z
" transform="scale(0.015625)"/>
      <path id="DejaVuSans-63" d="M 3122 3366 
L 3122 2828 
Q 2878 2963 2633 3030 
Q 2388 3097 2138 3097 
Q 1578 3097 1268 2742 
Q 959 2388 959 1747 
Q 959 1106 1268 751 
Q 1578 397 2138 397 
Q 2388 397 2633 464 
Q 2878 531 3122 666 
L 3122 134 
Q 2881 22 2623 -34 
Q 2366 -91 2075 -91 
Q 1284 -91 818 406 
Q 353 903 353 1747 
Q 353 2603 823 3093 
Q 1294 3584 2113 3584 
Q 2378 3584 2631 3529 
Q 2884 3475 3122 3366 
z
" transform="scale(0.015625)"/>
      <path id="DejaVuSans-67" d="M 2906 1791 
Q 2906 2416 2648 2759 
Q 2391 3103 1925 3103 
Q 1463 3103 1205 2759 
Q 947 2416 947 1791 
Q 947 1169 1205 825 
Q 1463 481 1925 481 
Q 2391 481 2648 825 
Q 2906 1169 2906 1791 
z
M 3481 434 
Q 3481 -459 3084 -895 
Q 2688 -1331 1869 -1331 
Q 1566 -1331 1297 -1286 
Q 1028 -1241 775 -1147 
L 775 -588 
Q 1028 -725 1275 -790 
Q 1522 -856 1778 -856 
Q 2344 -856 2625 -561 
Q 2906 -266 2906 331 
L 2906 616 
Q 2728 306 2450 153 
Q 2172 0 1784 0 
Q 1141 0 747 490 
Q 353 981 353 1791 
Q 353 2603 747 3093 
Q 1141 3584 1784 3584 
Q 2172 3584 2450 3431 
Q 2728 3278 2906 2969 
L 2906 3500 
L 3481 3500 
L 3481 434 
z
" transform="scale(0.015625)"/>
      <path id="DejaVuSans-54" d="M -19 4666 
L 3928 4666 
L 3928 4134 
L 2272 4134 
L 2272 0 
L 1638 0 
L 1638 4134 
L -19 4134 
L -19 4666 
z
" transform="scale(0.015625)"/>
      <path id="DejaVuSans-50" d="M 1259 4147 
L 1259 2394 
L 2053 2394 
Q 2494 2394 2734 2622 
Q 2975 2850 2975 3272 
Q 2975 3691 2734 3919 
Q 2494 4147 2053 4147 
L 1259 4147 
z
M 628 4666 
L 2053 4666 
Q 2838 4666 3239 4311 
Q 3641 3956 3641 3272 
Q 3641 2581 3239 2228 
Q 2838 1875 2053 1875 
L 1259 1875 
L 1259 0 
L 628 0 
L 628 4666 
z
" transform="scale(0.015625)"/>
     </defs>
     <use xlink:href="#DejaVuSans-53"/>
     <use xlink:href="#DejaVuSans-70" x="63.476562"/>
     <use xlink:href="#DejaVuSans-61" x="126.953125"/>
     <use xlink:href="#DejaVuSans-63" x="188.232422"/>
     <use xlink:href="#DejaVuSans-69" x="243.212891"/>
     <use xlink:href="#DejaVuSans-6e" x="270.996094"/>
     <use xlink:href="#DejaVuSans-67" x="334.375"/>
     <use xlink:href="#DejaVuSans-20" x="397.851562"/>
     <use xlink:href="#DejaVuSans-54" x="429.638672"/>
     <use xlink:href="#DejaVuSans-72" x="475.972656"/>
     <use xlink:href="#DejaVuSans-61" x="517.085938"/>
     <use xlink:href="#DejaVuSans-63" x="578.365234"/>
     <use xlink:href="#DejaVuSans-65" x="633.345703"/>
     <use xlink:href="#DejaVuSans-20" x="694.869141"/>
     <use xlink:href="#DejaVuSans-50" x="726.65625"/>
     <use xlink:href="#DejaVuSans-6c" x="786.958984"/>
     <use xlink:href="#DejaVuSans-6f" x="814.742188"/>
     <use xlink:href="#DejaVuSans-74" x="875.923828"/>
    </g>
   </g>
   <g id="legend_1">
    <g id="patch_7">
     <path d="M 306.15625 44.99625 
L 377.94375 44.99625 
Q 379.94375 44.99625 379.94375 42.99625 
L 379.94375 29.318125 
Q 379.94375 27.318125 377.94375 27.318125 
L 306.15625 27.318125 
Q 304.15625 27.318125 304.15625 29.318125 
L 304.15625 42.99625 
Q 304.15625 44.99625 306.15625 44.99625 
z
" style="fill: #ffffff; opacity: 0.8; stroke: #cccccc; stroke-linejoin: miter"/>
    </g>
    <g id="line2d_29">
     <path d="M 308.15625 35.416562 
L 318.15625 35.416562 
L 328.15625 35.416562 
" style="fill: none; stroke: #0000ff; stroke-width: 2; stroke-linecap: square"/>
    </g>
    <g id="text_17">
     <!-- Spacing -->
     <g transform="translate(336.15625 38.916562) scale(0.1 -0.1)">
      <use xlink:href="#DejaVuSans-53"/>
      <use xlink:href="#DejaVuSans-70" x="63.476562"/>
      <use xlink:href="#DejaVuSans-61" x="126.953125"/>
      <use xlink:href="#DejaVuSans-63" x="188.232422"/>
      <use xlink:href="#DejaVuSans-69" x="243.212891"/>
      <use xlink:href="#DejaVuSans-6e" x="270.996094"/>
      <use xlink:href="#DejaVuSans-67" x="334.375"/>
     </g>
    </g>
   </g>
  </g>
 </g>
 <defs>
  <clipPath id="pf288c8304f">
   <rect x="50.14375" y="22.318125" width="334.8" height="217.44"/>
  </clipPath>
 </defs>
</svg>
